<svg width="500" height="500" viewBox="0 0 500 500" fill="none" xmlns="http://www.w3.org/2000/svg">
<rect width="500" height="500" fill="#0052FF"/>
<path fill-rule="evenodd" clip-rule="evenodd" d="M104.14 0H395.84C453.38 0 500 50.16 500 112.04V387.96C500 449.84 453.38 500 395.86 500H104.14C46.62 500 0 449.84 0 387.96V112.04C0 50.16 46.62 0 104.14 0Z" fill="#0052FF"/>
<path fill-rule="evenodd" clip-rule="evenodd" d="M250 72.4199C348.08 72.4199 427.58 151.92 427.58 250C427.58 348.08 348.08 427.58 250 427.58C151.92 427.58 72.4199 348.08 72.4199 250C72.4199 151.92 151.92 72.4199 250 72.4199Z" fill="white"/>
<path fill-rule="evenodd" clip-rule="evenodd" d="M206.26 193.24H293.72C300.92 193.24 306.74 199.52 306.74 207.24V292.74C306.74 300.48 300.9 306.74 293.72 306.74H206.26C199.06 306.74 193.24 300.46 193.24 292.74V207.24C193.24 199.52 199.08 193.24 206.26 193.24Z" fill="#0052FF"/>
</svg>
