<svg width="500" height="500" viewBox="0 0 500 500" fill="none" xmlns="http://www.w3.org/2000/svg">
<rect width="500" height="500" fill="white"/>
<path fill-rule="evenodd" clip-rule="evenodd" d="M347 94C376.25 94 386 103.75 386 133V172C407.54 172 425 189.461 425 211V347.5C425 386.5 405.5 406 366.481 406H132.5C93.5 406 74 386.5 74 347.5V152.5C74 123.25 103.25 94 132.5 94H347ZM113 152.5C113 141.731 121.731 133 132.5 133H386V172H132.5C121.731 172 113 163.27 113 152.5ZM347 328C366.5 328 386.02 308.5 386 289C385.98 269.5 366.5 250 347 250C327.5 250 308 269.5 308 289C308 308.5 327.5 328 347 328Z" fill="#0B0B0A"/>
</svg>
