<svg width="500" height="500" viewBox="0 0 500 500" fill="none" xmlns="http://www.w3.org/2000/svg">
<rect width="500" height="500" fill="#F6851B"/>
<path d="M406.854 88.8604L271.261 189.563L296.341 130.148L406.854 88.8604Z" fill="#E2761B" stroke="#E2761B" stroke-linecap="round" stroke-linejoin="round"/>
<path d="M93.8391 88.8604L228.342 190.516L204.49 130.148L93.8391 88.8604Z" fill="#E4761B" stroke="#E4761B" stroke-linecap="round" stroke-linejoin="round"/>
<path d="M358.066 322.29L321.955 377.619L399.223 398.873L421.437 323.517L358.066 322.29Z" fill="#E4761B" stroke="#E4761B" stroke-linecap="round" stroke-linejoin="round"/>
<path d="M79.5303 323.517L101.607 398.873L178.875 377.619L142.764 322.29L79.5303 323.517Z" fill="#E4761B" stroke="#E4761B" stroke-linecap="round" stroke-linejoin="round"/>
<path d="M174.515 228.806L152.98 261.38L229.699 264.787L226.977 182.343L174.515 228.806Z" fill="#E4761B" stroke="#E4761B" stroke-linecap="round" stroke-linejoin="round"/>
<path d="M326.178 228.807L273.037 181.39L271.261 264.788L347.85 261.38L326.178 228.807Z" fill="#E4761B" stroke="#E4761B" stroke-linecap="round" stroke-linejoin="round"/>
<path d="M178.875 377.618L224.934 355.13L185.142 324.058L178.875 377.618Z" fill="#E4761B" stroke="#E4761B" stroke-linecap="round" stroke-linejoin="round"/>
<path d="M275.758 355.13L321.955 377.618L315.551 324.058L275.758 355.13Z" fill="#E4761B" stroke="#E4761B" stroke-linecap="round" stroke-linejoin="round"/>
<path d="M321.955 377.618L275.758 355.13L279.44 385.249L279.029 397.919L321.955 377.618Z" fill="#D7C1B3" stroke="#D7C1B3" stroke-linecap="round" stroke-linejoin="round"/>
<path d="M178.875 377.618L221.801 397.919L221.527 385.249L224.934 355.13L178.875 377.618Z" fill="#D7C1B3" stroke="#D7C1B3" stroke-linecap="round" stroke-linejoin="round"/>
<path d="M222.48 304.169L184.052 292.857L211.167 280.454L222.48 304.169Z" fill="#233447" stroke="#233447" stroke-linecap="round" stroke-linejoin="round"/>
<path d="M278.213 304.169L289.525 280.454L316.778 292.857L278.213 304.169Z" fill="#233447" stroke="#233447" stroke-linecap="round" stroke-linejoin="round"/>
<path d="M178.875 377.619L185.416 322.29L142.764 323.517L178.875 377.619Z" fill="#CD6116" stroke="#CD6116" stroke-linecap="round" stroke-linejoin="round"/>
<path d="M315.414 322.29L321.955 377.619L358.066 323.517L315.414 322.29Z" fill="#CD6116" stroke="#CD6116" stroke-linecap="round" stroke-linejoin="round"/>
<path d="M347.85 261.38L271.261 264.787L278.35 304.169L289.663 280.454L316.916 292.856L347.85 261.38Z" fill="#CD6116" stroke="#CD6116" stroke-linecap="round" stroke-linejoin="round"/>
<path d="M184.052 292.856L211.304 280.454L222.48 304.169L229.699 264.787L152.98 261.38L184.052 292.856Z" fill="#CD6116" stroke="#CD6116" stroke-linecap="round" stroke-linejoin="round"/>
<path d="M152.98 261.38L185.142 324.058L184.052 292.856L152.98 261.38Z" fill="#E4751F" stroke="#E4751F" stroke-linecap="round" stroke-linejoin="round"/>
<path d="M316.916 292.856L315.551 324.058L347.85 261.38L316.916 292.856Z" fill="#E4751F" stroke="#E4751F" stroke-linecap="round" stroke-linejoin="round"/>
<path d="M229.699 264.787L222.48 304.168L231.475 350.632L233.518 289.448L229.699 264.787Z" fill="#E4751F" stroke="#E4751F" stroke-linecap="round" stroke-linejoin="round"/>
<path d="M271.261 264.787L267.586 289.311L269.218 350.632L278.35 304.168L271.261 264.787Z" fill="#E4751F" stroke="#E4751F" stroke-linecap="round" stroke-linejoin="round"/>
<path d="M278.35 304.169L269.218 350.633L275.758 355.13L315.551 324.058L316.916 292.856L278.35 304.169Z" fill="#F6851B" stroke="#F6851B" stroke-linecap="round" stroke-linejoin="round"/>
<path d="M184.052 292.856L185.142 324.058L224.934 355.13L231.475 350.633L222.48 304.169L184.052 292.856Z" fill="#F6851B" stroke="#F6851B" stroke-linecap="round" stroke-linejoin="round"/>
<path d="M279.029 397.919L279.44 385.249L276.033 382.246H224.66L221.527 385.249L221.801 397.919L178.875 377.618L193.863 389.877L224.249 411H276.444L306.968 389.877L321.955 377.618L279.029 397.919Z" fill="#C0AD9E" stroke="#C0AD9E" stroke-linecap="round" stroke-linejoin="round"/>
<path d="M275.759 355.13L269.218 350.633H231.475L224.934 355.13L221.527 385.249L224.66 382.246H276.033L279.44 385.249L275.759 355.13Z" fill="#161616" stroke="#161616" stroke-linecap="round" stroke-linejoin="round"/>
<path d="M412.578 196.103L424.158 140.507L406.854 88.8604L275.758 186.155L326.178 228.807L397.447 249.656L413.257 231.261L406.442 226.359L417.343 216.411L408.897 209.87L419.798 201.554L412.578 196.103Z" fill="#763D16" stroke="#763D16" stroke-linecap="round" stroke-linejoin="round"/>
<path d="M76.6714 140.507L88.2513 196.103L80.8947 201.554L91.7959 209.87L83.4863 216.411L94.3875 226.359L87.5726 231.261L103.246 249.656L174.515 228.807L224.934 186.155L93.839 88.8604L76.6714 140.507Z" fill="#763D16" stroke="#763D16" stroke-linecap="round" stroke-linejoin="round"/>
<path d="M397.447 249.656L326.178 228.807L347.85 261.38L315.551 324.059L358.066 323.517H421.437L397.447 249.656Z" fill="#F6851B" stroke="#F6851B" stroke-linecap="round" stroke-linejoin="round"/>
<path d="M174.515 228.807L103.245 249.656L79.5303 323.517H142.764L185.141 324.059L152.98 261.38L174.515 228.807Z" fill="#F6851B" stroke="#F6851B" stroke-linecap="round" stroke-linejoin="round"/>
<path d="M271.261 264.788L275.759 186.156L296.478 130.148H204.49L224.934 186.156L229.699 264.788L231.338 289.587L231.475 350.633H269.218L269.492 289.587L271.261 264.788Z" fill="#F6851B" stroke="#F6851B" stroke-linecap="round" stroke-linejoin="round"/>
</svg>
