<svg width="500" height="500" viewBox="0 0 500 500" fill="none" xmlns="http://www.w3.org/2000/svg">
<rect width="500" height="500" fill="white"/>
<path d="M399.875 96.4L270.407 192.558L294.349 135.826L399.875 96.4Z" fill="#E2761B" stroke="#E2761B" stroke-linecap="round" stroke-linejoin="round"/>
<path d="M100.993 96.4L229.42 193.468L206.65 135.826L100.993 96.4ZM353.293 319.293L318.812 372.121L392.589 392.419L413.798 320.464L353.293 319.293ZM87.3311 320.464L108.41 392.419L182.187 372.121L147.706 319.293L87.3311 320.464Z" fill="#E4761B" stroke="#E4761B" stroke-linecap="round" stroke-linejoin="round"/>
<path d="M178.024 230.032L157.465 261.13L230.722 264.383L228.119 185.661L178.024 230.032ZM322.845 230.032L272.099 184.75L270.408 264.383L343.534 261.13L322.845 230.032ZM182.187 372.121L226.167 350.651L188.173 320.984L182.187 372.121ZM274.702 350.651L318.812 372.121L312.696 320.984L274.702 350.651Z" fill="#E4761B" stroke="#E4761B" stroke-linecap="round" stroke-linejoin="round"/>
<path d="M318.812 372.121L274.702 350.651L278.215 379.408L277.825 391.509L318.812 372.121ZM182.188 372.121L223.175 391.509L222.915 379.408L226.168 350.651L182.188 372.121Z" fill="#D7C1B3" stroke="#D7C1B3" stroke-linecap="round" stroke-linejoin="round"/>
<path d="M223.825 301.987L187.132 291.187L213.025 279.347L223.825 301.987ZM277.044 301.987L287.844 279.347L313.867 291.187L277.044 301.987Z" fill="#233447" stroke="#233447" stroke-linecap="round" stroke-linejoin="round"/>
<path d="M182.187 372.121L188.433 319.293L147.706 320.464L182.187 372.121ZM312.566 319.293L318.812 372.121L353.293 320.464L312.566 319.293ZM343.534 261.13L270.408 264.383L277.174 301.987L287.974 279.347L313.997 291.187L343.534 261.13ZM187.132 291.187L213.156 279.347L223.825 301.987L230.722 264.383L157.465 261.13L187.132 291.187Z" fill="#CD6116" stroke="#CD6116" stroke-linecap="round" stroke-linejoin="round"/>
<path d="M157.465 261.13L188.173 320.984L187.132 291.187L157.465 261.13ZM313.997 291.187L312.696 320.984L343.534 261.13L313.997 291.187ZM230.722 264.383L223.825 301.987L232.413 346.358L234.365 287.934L230.722 264.383ZM270.408 264.383L266.894 287.804L268.456 346.358L277.174 301.987L270.408 264.383Z" fill="#E4751F" stroke="#E4751F" stroke-linecap="round" stroke-linejoin="round"/>
<path d="M277.174 301.987L268.456 346.358L274.702 350.651L312.696 320.984L313.997 291.187L277.174 301.987ZM187.132 291.187L188.173 320.984L226.167 350.651L232.413 346.358L223.825 301.987L187.132 291.187Z" fill="#F6851B" stroke="#F6851B" stroke-linecap="round" stroke-linejoin="round"/>
<path d="M277.825 391.509L278.215 379.408L274.962 376.545H225.907L222.915 379.408L223.175 391.509L182.188 372.121L196.501 383.832L225.517 404H275.352L304.499 383.832L318.812 372.121L277.825 391.509Z" fill="#C0AD9E" stroke="#C0AD9E" stroke-linecap="round" stroke-linejoin="round"/>
<path d="M274.701 350.651L268.456 346.358H232.413L226.167 350.651L222.914 379.408L225.907 376.545H274.961L278.214 379.408L274.701 350.651Z" fill="#161616" stroke="#161616" stroke-linecap="round" stroke-linejoin="round"/>
<path d="M405.341 198.803L416.401 145.715L399.876 96.4L274.702 189.305L322.846 230.032L390.897 249.94L405.991 232.374L399.485 227.689L409.895 218.191L401.827 211.945L412.237 204.008L405.341 198.803ZM84.5986 145.715L95.6587 198.803L88.6323 204.008L99.0418 211.945L91.1046 218.191L101.514 227.689L95.0081 232.374L109.972 249.94L178.024 230.032L226.168 189.305L100.994 96.4L84.5986 145.715Z" fill="#763D16" stroke="#763D16" stroke-linecap="round" stroke-linejoin="round"/>
<path d="M390.897 249.94L322.845 230.032L343.534 261.13L312.696 320.984L353.293 320.464H413.798L390.897 249.94ZM178.024 230.032L109.972 249.94L87.3311 320.464H147.706L188.173 320.984L157.465 261.13L178.024 230.032ZM270.408 264.383L274.702 189.305L294.48 135.826H206.65L226.167 189.305L230.722 264.383L232.283 288.064L232.413 346.358H268.456L268.716 288.064L270.408 264.383Z" fill="#F6851B" stroke="#F6851B" stroke-linecap="round" stroke-linejoin="round"/>
</svg>
