<svg width="349" height="324" viewBox="0 0 349 324" fill="none" xmlns="http://www.w3.org/2000/svg">
<path d="M331.182 1L195.59 101.702L220.669 42.2874L331.182 1Z" fill="#E2761B" stroke="#E2761B" stroke-linecap="round" stroke-linejoin="round"/>
<path d="M18.1677 1L152.67 102.655L128.818 42.2874L18.1677 1Z" fill="#E4761B" stroke="#E4761B" stroke-linecap="round" stroke-linejoin="round"/>
<path d="M282.394 234.43L246.283 289.758L323.552 311.012L345.765 235.657L282.394 234.43Z" fill="#E4761B" stroke="#E4761B" stroke-linecap="round" stroke-linejoin="round"/>
<path d="M3.85889 235.657L25.9355 311.012L103.204 289.758L67.0926 234.43L3.85889 235.657Z" fill="#E4761B" stroke="#E4761B" stroke-linecap="round" stroke-linejoin="round"/>
<path d="M98.8433 140.946L77.3083 173.519L154.028 176.927L151.306 94.4824L98.8433 140.946Z" fill="#E4761B" stroke="#E4761B" stroke-linecap="round" stroke-linejoin="round"/>
<path d="M250.507 140.946L197.365 93.5298L195.59 176.927L272.179 173.52L250.507 140.946Z" fill="#E4761B" stroke="#E4761B" stroke-linecap="round" stroke-linejoin="round"/>
<path d="M103.204 289.758L149.263 267.27L109.47 236.198L103.204 289.758Z" fill="#E4761B" stroke="#E4761B" stroke-linecap="round" stroke-linejoin="round"/>
<path d="M200.087 267.27L246.283 289.758L239.88 236.198L200.087 267.27Z" fill="#E4761B" stroke="#E4761B" stroke-linecap="round" stroke-linejoin="round"/>
<path d="M246.283 289.758L200.087 267.27L203.769 297.389L203.357 310.059L246.283 289.758Z" fill="#D7C1B3" stroke="#D7C1B3" stroke-linecap="round" stroke-linejoin="round"/>
<path d="M103.204 289.758L146.13 310.059L145.856 297.389L149.263 267.27L103.204 289.758Z" fill="#D7C1B3" stroke="#D7C1B3" stroke-linecap="round" stroke-linejoin="round"/>
<path d="M146.809 216.309L108.38 204.996L135.496 192.594L146.809 216.309Z" fill="#233447" stroke="#233447" stroke-linecap="round" stroke-linejoin="round"/>
<path d="M202.542 216.309L213.854 192.594L241.107 204.996L202.542 216.309Z" fill="#233447" stroke="#233447" stroke-linecap="round" stroke-linejoin="round"/>
<path d="M103.204 289.758L109.744 234.43L67.0925 235.657L103.204 289.758Z" fill="#CD6116" stroke="#CD6116" stroke-linecap="round" stroke-linejoin="round"/>
<path d="M239.743 234.43L246.283 289.758L282.394 235.657L239.743 234.43Z" fill="#CD6116" stroke="#CD6116" stroke-linecap="round" stroke-linejoin="round"/>
<path d="M272.179 173.52L195.59 176.927L202.679 216.308L213.991 192.593L241.244 204.996L272.179 173.52Z" fill="#CD6116" stroke="#CD6116" stroke-linecap="round" stroke-linejoin="round"/>
<path d="M108.38 204.996L135.633 192.593L146.809 216.308L154.028 176.927L77.3083 173.52L108.38 204.996Z" fill="#CD6116" stroke="#CD6116" stroke-linecap="round" stroke-linejoin="round"/>
<path d="M77.3083 173.52L109.47 236.198L108.38 204.996L77.3083 173.52Z" fill="#E4751F" stroke="#E4751F" stroke-linecap="round" stroke-linejoin="round"/>
<path d="M241.244 204.996L239.88 236.198L272.179 173.52L241.244 204.996Z" fill="#E4751F" stroke="#E4751F" stroke-linecap="round" stroke-linejoin="round"/>
<path d="M154.028 176.927L146.808 216.308L155.804 262.772L157.847 201.588L154.028 176.927Z" fill="#E4751F" stroke="#E4751F" stroke-linecap="round" stroke-linejoin="round"/>
<path d="M195.589 176.927L191.915 201.451L193.546 262.772L202.679 216.308L195.589 176.927Z" fill="#E4751F" stroke="#E4751F" stroke-linecap="round" stroke-linejoin="round"/>
<path d="M202.679 216.309L193.546 262.772L200.087 267.27L239.88 236.198L241.244 204.996L202.679 216.309Z" fill="#F6851B" stroke="#F6851B" stroke-linecap="round" stroke-linejoin="round"/>
<path d="M108.38 204.996L109.47 236.198L149.263 267.27L155.804 262.772L146.809 216.309L108.38 204.996Z" fill="#F6851B" stroke="#F6851B" stroke-linecap="round" stroke-linejoin="round"/>
<path d="M203.358 310.059L203.769 297.389L200.361 294.386H148.989L145.856 297.389L146.13 310.059L103.204 289.758L118.191 302.016L148.577 323.14H200.773L231.296 302.016L246.284 289.758L203.358 310.059Z" fill="#C0AD9E" stroke="#C0AD9E" stroke-linecap="round" stroke-linejoin="round"/>
<path d="M200.087 267.27L193.546 262.772H155.804L149.263 267.27L145.855 297.389L148.989 294.386H200.361L203.769 297.389L200.087 267.27Z" fill="#161616" stroke="#161616" stroke-linecap="round" stroke-linejoin="round"/>
<path d="M336.907 108.243L348.487 52.6469L331.182 1L200.087 98.2948L250.507 140.946L321.776 161.796L337.586 143.401L330.771 138.499L341.672 128.551L333.225 122.01L344.126 113.694L336.907 108.243Z" fill="#763D16" stroke="#763D16" stroke-linecap="round" stroke-linejoin="round"/>
<path d="M1 52.6469L12.5799 108.243L5.22335 113.694L16.1245 122.01L7.81495 128.551L18.7161 138.499L11.9012 143.401L27.5742 161.796L98.8432 140.946L149.263 98.2948L18.1676 1L1 52.6469Z" fill="#763D16" stroke="#763D16" stroke-linecap="round" stroke-linejoin="round"/>
<path d="M321.776 161.796L250.507 140.947L272.179 173.52L239.88 236.198L282.394 235.657H345.765L321.776 161.796Z" fill="#F6851B" stroke="#F6851B" stroke-linecap="round" stroke-linejoin="round"/>
<path d="M98.8431 140.947L27.5741 161.796L3.85889 235.657H67.0926L109.47 236.198L77.3082 173.52L98.8431 140.947Z" fill="#F6851B" stroke="#F6851B" stroke-linecap="round" stroke-linejoin="round"/>
<path d="M195.59 176.928L200.087 98.2955L220.806 42.2881H128.818L149.263 98.2955L154.028 176.928L155.667 201.726L155.804 262.773H193.546L193.821 201.726L195.59 176.928Z" fill="#F6851B" stroke="#F6851B" stroke-linecap="round" stroke-linejoin="round"/>
</svg>
