<svg width="500" height="500" viewBox="0 0 500 500" fill="none" xmlns="http://www.w3.org/2000/svg">
<rect width="500" height="500" fill="#8697FF"/>
<path d="M419.256 272.417C432.66 240.616 366.397 151.771 303.093 114.756C263.191 86.0809 221.613 90.0204 213.192 102.611C194.712 130.242 274.386 153.655 327.671 180.976C316.217 186.26 305.423 195.741 299.075 207.867C279.211 184.834 235.61 164.999 184.449 180.976C149.972 191.743 121.32 217.126 110.246 255.463C107.555 254.193 104.576 253.487 101.442 253.487C89.4557 253.487 79.7393 263.807 79.7393 276.536C79.7393 289.266 89.4557 299.584 101.442 299.584C103.663 299.584 110.61 298.002 110.61 298.002L221.613 298.856C177.22 373.65 142.138 384.584 142.138 397.541C142.138 410.499 175.706 406.987 188.309 402.158C248.646 379.036 313.452 306.976 324.572 286.233C371.271 292.42 410.517 293.152 419.256 272.417Z" fill="url(#paint0_linear_97_61)"/>
<path fill-rule="evenodd" clip-rule="evenodd" d="M327.662 180.98C330.131 179.947 329.74 176.077 329.063 173.035C327.503 166.042 300.608 137.837 275.353 125.203C240.941 107.99 215.601 108.876 211.854 116.808C218.862 132.068 251.362 146.394 285.305 161.357C299.786 167.741 314.523 174.243 327.662 180.98Z" fill="url(#paint1_linear_97_61)"/>
<path fill-rule="evenodd" clip-rule="evenodd" d="M283.995 334.552C277.035 331.727 269.173 329.136 260.236 326.784C269.765 308.674 271.765 281.862 262.765 264.911C250.133 241.121 234.277 228.458 197.431 228.458C177.165 228.458 122.602 235.708 121.634 284.082C121.532 289.157 121.631 293.809 121.977 298.086L221.614 298.853C208.181 321.485 195.601 338.27 184.587 351.033C197.811 354.632 208.723 357.652 218.742 360.426C228.247 363.058 236.949 365.467 246.055 367.935C259.794 357.305 272.708 345.714 283.995 334.552Z" fill="url(#paint2_linear_97_61)"/>
<path d="M108.92 293.119C112.99 329.866 132.654 344.268 172.837 348.53C213.019 352.792 236.068 349.932 266.754 352.897C292.383 355.374 315.267 369.244 323.756 364.451C331.396 360.137 327.122 344.552 316.898 334.553C303.647 321.591 285.306 312.58 253.035 309.383C259.466 290.681 257.664 264.459 247.675 250.193C233.233 229.565 206.575 220.239 172.837 224.313C137.587 228.571 103.811 247.001 108.92 293.119Z" fill="url(#paint3_linear_97_61)"/>
<defs>
<linearGradient id="paint0_linear_97_61" x1="180.434" y1="244.256" x2="418.379" y2="307.791" gradientUnits="userSpaceOnUse">
<stop stop-color="white"/>
<stop offset="1" stop-color="white"/>
</linearGradient>
<linearGradient id="paint1_linear_97_61" x1="376.637" y1="239.493" x2="196.137" y2="69.1224" gradientUnits="userSpaceOnUse">
<stop stop-color="#8697FF"/>
<stop offset="1" stop-color="#8697FF" stop-opacity="0"/>
</linearGradient>
<linearGradient id="paint2_linear_97_61" x1="288.731" y1="340.865" x2="120.457" y2="249.771" gradientUnits="userSpaceOnUse">
<stop stop-color="#8697FF"/>
<stop offset="1" stop-color="#8697FF" stop-opacity="0"/>
</linearGradient>
<linearGradient id="paint3_linear_97_61" x1="194.523" y1="242.386" x2="313.384" y2="384.589" gradientUnits="userSpaceOnUse">
<stop stop-color="white"/>
<stop offset="0.983895" stop-color="#D1D8FF"/>
</linearGradient>
</defs>
</svg>
