<svg width="500" height="500" viewBox="0 0 500 500" fill="none" xmlns="http://www.w3.org/2000/svg">
<rect width="500" height="500" fill="white"/>
<path d="M136.613 177.984C199.235 116.672 300.765 116.672 363.388 177.984L370.924 185.363C374.055 188.429 374.055 193.399 370.924 196.465L345.143 221.707C343.577 223.24 341.039 223.24 339.473 221.707L329.102 211.553C285.415 168.78 214.585 168.78 170.898 211.553L159.791 222.427C158.226 223.96 155.688 223.96 154.122 222.427L128.341 197.185C125.209 194.119 125.209 189.149 128.341 186.083L136.613 177.984ZM416.706 230.188L439.652 252.653C442.783 255.719 442.783 260.689 439.652 263.755L336.189 365.056C333.058 368.121 327.981 368.121 324.85 365.056L251.418 293.16C250.635 292.393 249.366 292.393 248.583 293.16L175.153 365.056C172.022 368.121 166.945 368.121 163.814 365.056L60.3483 263.754C57.2172 260.688 57.2172 255.718 60.3483 252.652L83.2939 230.186C86.425 227.121 91.5016 227.121 94.6327 230.186L168.066 302.083C168.848 302.85 170.117 302.85 170.9 302.083L244.329 230.186C247.46 227.121 252.537 227.121 255.668 230.186L329.101 302.083C329.884 302.85 331.153 302.85 331.936 302.083L405.367 230.188C408.499 227.122 413.575 227.122 416.706 230.188Z" fill="#3396FF"/>
</svg>
