<svg width="500" height="500" viewBox="0 0 500 500" fill="none" xmlns="http://www.w3.org/2000/svg">
<path d="M499.998 248.897C500.216 298.343 485.766 346.742 458.477 387.976C431.188 429.209 392.284 461.424 346.686 480.547C301.087 499.67 250.842 504.841 202.305 495.408C153.767 485.975 109.117 462.36 74.0001 427.55C38.8836 392.74 14.8782 348.298 5.01964 299.845C-4.83898 251.392 -0.108011 201.104 18.6143 155.34C37.3365 109.575 69.2092 70.3906 110.202 42.7407C151.194 15.0909 199.465 0.21784 248.911 0.00237688C315.212 -0.286537 378.912 25.7735 426 72.45C473.088 119.126 499.705 182.596 499.998 248.897Z" fill="#8DC63F"/>
<path d="M481.247 248.987C481.455 294.717 468.097 339.481 442.863 377.619C417.629 415.757 381.652 445.556 339.482 463.247C297.313 480.938 250.844 485.727 205.952 477.008C161.061 468.289 119.763 446.453 87.2815 414.263C54.8 382.073 32.5935 340.974 23.4703 296.163C14.3471 251.352 18.7169 204.841 36.0273 162.514C53.3376 120.186 82.8109 83.9427 120.72 58.3661C158.629 32.7895 203.271 19.0287 249.001 18.824C310.318 18.5543 369.232 42.6505 412.785 85.813C456.339 128.976 480.965 187.67 481.247 248.987Z" fill="#F9E988"/>
<path d="M254.254 33.8064C268.952 31.1975 283.995 31.1975 298.693 33.8064C313.533 36.1562 327.878 40.9623 341.138 48.0274C354.327 55.2738 365.722 65.1107 377.062 74.3317C388.403 83.5527 399.689 92.9911 410.432 103.317C421.398 113.482 430.968 125.057 438.892 137.737C447.051 150.318 453.737 163.794 458.82 177.901C468.475 206.27 471.827 236.832 467.008 265.98H465.577C460.74 237.085 454.182 209.549 443.838 183.353C438.982 170.162 433.27 157.303 426.736 144.857C419.92 132.409 412.408 120.355 404.236 108.752C395.926 97.0215 385.742 86.7391 374.091 78.3172C362.352 69.9477 348.856 64.531 335.794 59.3861C322.733 54.2411 309.78 48.915 296.157 45.002C282.533 41.089 268.693 38.1542 254.236 35.31L254.254 33.8064Z" fill="white"/>
<path d="M367.28 167.376C350.505 162.521 333.114 155.637 315.505 148.68C314.49 144.26 310.577 138.753 302.661 132.032C291.157 122.05 269.545 122.304 250.867 126.724C230.251 121.869 209.889 120.148 190.342 124.912C30.4688 168.952 121.121 276.398 62.4253 384.405C70.7767 402.122 160.795 505.492 291.048 477.756C291.048 477.756 246.501 370.709 347.027 319.332C428.567 277.503 487.48 200.111 367.28 167.376Z" fill="#8BC53F"/>
<path d="M387.026 237.683C387.037 239.6 386.479 241.477 385.423 243.076C384.367 244.676 382.86 245.927 381.094 246.67C379.327 247.414 377.379 247.617 375.497 247.253C373.615 246.89 371.883 245.976 370.52 244.628C369.157 243.281 368.224 241.559 367.84 239.681C367.455 237.803 367.636 235.853 368.36 234.078C369.083 232.303 370.317 230.783 371.905 229.709C373.493 228.635 375.363 228.056 377.28 228.045C379.849 228.035 382.317 229.044 384.144 230.851C385.971 232.657 387.007 235.114 387.026 237.683Z" fill="white"/>
<path d="M250.867 126.65C262.516 127.484 304.635 141.143 315.505 148.607C306.447 122.339 275.958 118.842 250.867 126.65Z" fill="#009345"/>
<path d="M261.954 193.082C261.958 201.925 259.339 210.571 254.428 217.926C249.518 225.281 242.536 231.015 234.367 234.401C226.197 237.788 217.207 238.676 208.533 236.953C199.859 235.23 191.891 230.973 185.636 224.721C179.381 218.469 175.121 210.502 173.395 201.829C171.668 193.156 172.552 184.165 175.936 175.994C179.319 167.823 185.05 160.84 192.403 155.926C199.756 151.012 208.401 148.39 217.244 148.39C223.115 148.387 228.928 149.542 234.353 151.786C239.777 154.031 244.706 157.323 248.858 161.473C253.01 165.624 256.304 170.551 258.551 175.975C260.798 181.398 261.954 187.211 261.954 193.082Z" fill="white"/>
<path d="M248.693 193.481C248.693 199.701 246.849 205.781 243.393 210.953C239.938 216.125 235.026 220.156 229.279 222.536C223.533 224.916 217.209 225.539 211.109 224.326C205.008 223.112 199.404 220.117 195.006 215.719C190.608 211.32 187.613 205.717 186.399 199.616C185.186 193.516 185.809 187.192 188.189 181.446C190.569 175.699 194.6 170.787 199.772 167.332C204.944 163.876 211.024 162.031 217.244 162.031C225.585 162.031 233.584 165.345 239.482 171.243C245.38 177.141 248.693 185.14 248.693 193.481Z" fill="#58595B"/>
<path d="M423.24 257.394C387.008 282.919 345.813 302.285 287.371 302.285C260.016 302.285 254.472 273.3 236.392 287.466C227.063 294.821 194.164 311.271 168.059 310.021C141.954 308.771 99.6351 293.463 87.8417 237.738C83.1677 293.463 80.7764 334.513 59.8525 381.56C101.519 448.281 200.867 499.749 291.048 477.575C281.356 409.912 340.487 343.644 373.802 309.731C386.483 296.887 410.577 275.926 423.24 257.358V257.394Z" fill="#8BC53F"/>
<path d="M421.828 259.06C410.578 269.314 397.19 276.905 383.567 283.608C369.778 290.155 355.402 295.389 340.632 299.242C325.849 303.064 310.433 305.945 294.817 304.532C279.201 303.118 263.241 297.81 252.896 286.108L253.386 285.546C266.067 293.771 280.704 296.669 295.27 297.086C310.033 297.535 324.8 296.319 339.291 293.463C353.93 290.398 368.25 285.971 382.063 280.238C395.886 274.532 409.563 267.919 421.338 258.499L421.828 259.06Z" fill="#58595B"/>
</svg>
