<svg width="500" height="500" viewBox="0 0 500 500" fill="none" xmlns="http://www.w3.org/2000/svg">
<rect width="500" height="500" rx="250" fill="#3661FB"/>
<path d="M374.117 284.656C368.149 288.376 361.186 289.052 355.88 286.009C349.249 281.951 345.27 272.82 345.27 260.307V222.093C345.27 203.831 338.306 190.642 326.37 187.261C306.143 181.173 290.89 206.537 285.254 216.006L249.443 274.511V202.479C249.111 185.908 243.806 176.101 233.859 173.057C227.227 171.028 217.28 172.043 207.664 186.923L127.753 317.459C117.142 296.83 111.505 273.834 111.505 250.5C111.505 171.704 173.511 107.789 249.443 107.789C325.375 107.789 387.38 171.704 387.38 250.5V250.838V251.176C388.044 266.394 383.401 278.569 374.117 284.656ZM417.886 250.5V250.162V249.824C417.554 154.119 341.954 76 249.443 76C156.6 76 81 154.119 81 250.5C81 346.543 156.6 425 249.443 425C292.217 425 332.67 408.429 363.838 378.331C370.138 372.244 370.47 362.437 364.501 356.012C358.864 349.586 349.249 349.248 342.949 354.997C342.949 354.997 342.949 354.997 342.617 355.335C317.417 379.684 283.596 393.549 248.78 393.549C207.995 393.549 171.521 375.288 146.321 346.204L218.274 228.518V282.965C218.274 309.005 228.222 317.459 236.511 319.827C244.801 322.194 257.401 320.503 270.996 298.521L310.454 233.253C311.78 231.224 312.775 229.195 314.101 227.842V260.984C314.101 285.332 323.717 304.947 340.296 314.416C355.217 323.208 374.117 322.194 389.701 312.387C408.933 299.536 419.212 277.216 417.886 250.5Z" fill="white"/>
</svg>
