<svg width="500" height="500" viewBox="0 0 500 500" fill="none" xmlns="http://www.w3.org/2000/svg">
<rect width="500" height="500" fill="black"/>
<path d="M340.995 194.334H311.549C308.146 194.334 304.881 192.876 302.59 190.306L290.644 176.833C288.839 174.819 286.339 173.638 283.63 173.638C280.922 173.638 278.421 174.819 276.616 176.833L266.337 188.431C263.004 192.181 258.142 194.403 253.142 194.403H91.9506C87.367 207.39 84.3806 221.211 83.2 235.587H235.363C238.071 235.587 240.572 234.476 242.447 232.531L256.614 217.738C258.351 215.863 260.851 214.821 263.351 214.821H263.907C266.615 214.821 269.115 216.002 270.921 218.016L282.866 231.489C285.158 234.059 288.422 235.517 291.825 235.517H416C414.819 221.211 411.833 207.321 407.249 194.265L340.995 194.334Z" fill="white"/>
<path d="M175.289 322.259C177.998 322.259 180.498 321.148 182.373 319.203L196.541 304.411C198.347 302.536 200.777 301.494 203.347 301.494H203.903C206.611 301.494 209.181 302.675 210.917 304.619L222.862 318.092C225.154 320.662 228.418 322.12 231.821 322.12H400.166C406.485 309.064 411.069 295.105 413.847 280.451H252.239C248.836 280.451 245.572 278.992 243.28 276.423L231.335 263.089C229.529 261.075 227.029 259.963 224.321 259.963C221.612 259.963 219.042 261.144 217.306 263.089L207.028 274.687C203.694 278.506 198.833 280.659 193.763 280.659H85.4918C88.2698 295.313 92.8534 309.272 99.1733 322.329L175.289 322.259Z" fill="white"/>
<path d="M294.672 149.262C297.381 149.262 299.881 148.15 301.756 146.206L315.924 131.413C317.66 129.538 320.16 128.496 322.73 128.496H323.286C325.994 128.496 328.494 129.677 330.3 131.691L342.245 145.234C344.537 147.803 347.801 149.262 351.204 149.262H383.22C352.732 108.703 304.256 82.521 249.669 82.521C195.082 82.521 146.538 108.703 116.049 149.262H294.672Z" fill="white"/>
<path d="M230.432 363.581H186.679C183.276 363.581 180.012 362.123 177.72 359.553L165.775 346.08C163.969 344.066 161.469 342.955 158.761 342.955C156.052 342.955 153.482 344.136 151.746 346.08L141.468 357.678C138.134 361.498 133.273 363.651 128.203 363.651H127.509C157.997 396.292 201.402 416.779 249.669 416.779C297.937 416.779 341.273 396.292 371.83 363.651L230.432 363.581Z" fill="white"/>
</svg>
