<svg width="500" height="500" viewBox="0 0 500 500" fill="none" xmlns="http://www.w3.org/2000/svg">
<rect width="500" height="500" fill="#213147"/>
<path d="M105.002 180.616V319.384C105.002 328.305 109.674 336.376 117.462 340.907L237.681 410.291C245.327 414.681 254.814 414.681 262.461 410.291L382.679 340.907C390.326 336.518 395.14 328.305 395.14 319.384V180.616C395.14 171.695 390.467 163.624 382.679 159.093L262.461 89.7087C254.814 85.3191 245.327 85.3191 237.681 89.7087L117.462 159.093C109.816 163.482 105.143 171.695 105.143 180.616H105.002Z" fill="#213147"/>
<path d="M276.196 276.904L259.062 323.915C258.638 325.189 258.638 326.605 259.062 328.021L288.515 408.875L322.641 389.193L281.718 276.904C280.727 274.355 277.187 274.355 276.196 276.904Z" fill="#12AAFF"/>
<path d="M310.605 197.891C309.614 195.342 306.074 195.342 305.082 197.891L287.949 244.902C287.524 246.177 287.524 247.593 287.949 249.009L336.234 381.405L370.36 361.722L310.605 198.033V197.891Z" fill="#12AAFF"/>
<path d="M250 94.948C250.85 94.948 251.699 95.2312 252.407 95.656L382.396 170.704C383.954 171.554 384.803 173.253 384.803 174.952V325.048C384.803 326.747 383.812 328.446 382.396 329.296L252.407 404.344C251.699 404.769 250.85 405.052 250 405.052C249.15 405.052 248.301 404.769 247.593 404.344L117.604 329.296C116.046 328.446 115.197 326.747 115.197 325.048V174.81C115.197 173.111 116.188 171.412 117.604 170.562L247.593 95.5144C248.301 95.0896 249.15 94.8064 250 94.8064V94.948ZM250 73C245.327 73 240.796 74.1328 236.548 76.54L106.559 151.588C98.2048 156.402 93.1072 165.182 93.1072 174.81V324.906C93.1072 334.535 98.2048 343.314 106.559 348.129L236.548 423.177C240.654 425.584 245.327 426.717 250 426.717C254.673 426.717 259.204 425.584 263.452 423.177L393.441 348.129C401.795 343.314 406.893 334.535 406.893 324.906V174.81C406.893 165.182 401.795 156.402 393.441 151.588L263.31 76.54C259.204 74.1328 254.531 73 249.858 73H250Z" fill="#9DCCED"/>
<path d="M163.907 381.547L175.943 348.695L200.015 368.661L177.501 389.335L163.907 381.547Z" fill="#213147"/>
<path d="M238.955 164.19H205.962C203.555 164.19 201.29 165.748 200.44 168.014L129.782 361.722L163.907 381.405L241.787 168.014C242.495 166.031 241.079 164.049 239.097 164.049L238.955 164.19Z" fill="white"/>
<path d="M296.728 164.19H263.735C261.328 164.19 259.062 165.748 258.213 168.014L177.501 389.193L211.626 408.875L299.418 168.014C300.126 166.031 298.71 164.049 296.728 164.049V164.19Z" fill="white"/>
</svg>
