<svg width="500" height="500" viewBox="0 0 500 500" fill="none" xmlns="http://www.w3.org/2000/svg">
<rect width="500" height="500" fill="url(#paint0_linear_80_23)"/>
<path d="M195.987 336.984V324.858H206.722C207.746 324.858 208.718 324.955 209.644 325.149C210.618 325.294 211.469 325.584 212.201 326.02C212.93 326.455 213.514 327.061 213.954 327.835C214.391 328.61 214.61 329.602 214.61 330.812C214.61 332.99 213.954 334.563 212.638 335.531C211.324 336.499 209.644 336.984 207.599 336.984H195.987ZM184.519 316V367.842H209.791C212.128 367.842 214.391 367.551 216.583 366.97C218.822 366.39 220.795 365.494 222.499 364.284C224.251 363.074 225.64 361.525 226.661 359.637C227.685 357.701 228.196 355.426 228.196 352.812C228.196 349.569 227.393 346.81 225.785 344.535C224.228 342.211 221.842 340.59 218.628 339.67C220.965 338.557 222.718 337.129 223.887 335.386C225.104 333.644 225.712 331.465 225.712 328.851C225.712 326.431 225.299 324.398 224.471 322.753C223.693 321.107 222.571 319.8 221.11 318.832C219.65 317.815 217.897 317.089 215.852 316.653C213.807 316.218 211.544 316 209.06 316H184.519ZM195.987 358.984V344.752H208.475C210.959 344.752 212.956 345.333 214.465 346.495C215.973 347.609 216.728 349.496 216.728 352.158C216.728 353.514 216.485 354.627 215.999 355.498C215.56 356.37 214.952 357.072 214.173 357.604C213.393 358.088 212.493 358.451 211.469 358.693C210.448 358.887 209.377 358.984 208.256 358.984H195.987Z" fill="white"/>
<path d="M234.119 330.304V367.842H244.49V350.924C244.49 349.23 244.66 347.657 245.002 346.205C245.343 344.752 245.902 343.494 246.682 342.429C247.509 341.316 248.58 340.444 249.896 339.815C251.209 339.186 252.817 338.871 254.715 338.871C255.348 338.871 256.005 338.92 256.688 339.017C257.37 339.065 257.954 339.138 258.441 339.234V329.65C257.613 329.408 256.858 329.287 256.176 329.287C254.862 329.287 253.596 329.481 252.378 329.868C251.16 330.255 250.017 330.812 248.947 331.538C247.874 332.216 246.925 333.063 246.098 334.079C245.27 335.047 244.611 336.112 244.125 337.274H243.98V330.304H234.119Z" fill="white"/>
<path d="M272.44 324.495V316H262.068V324.495H272.44ZM262.068 330.304V367.842H272.44V330.304H262.068Z" fill="white"/>
<path d="M306.68 348.964C306.68 350.513 306.535 352.013 306.243 353.465C305.951 354.918 305.463 356.224 304.782 357.386C304.1 358.5 303.174 359.395 302.006 360.073C300.886 360.75 299.474 361.089 297.771 361.089C296.163 361.089 294.775 360.75 293.606 360.073C292.486 359.347 291.537 358.427 290.759 357.314C290.028 356.152 289.492 354.845 289.151 353.393C288.81 351.941 288.641 350.488 288.641 349.036C288.641 347.487 288.786 346.011 289.079 344.607C289.42 343.155 289.931 341.873 290.612 340.759C291.343 339.646 292.292 338.75 293.461 338.073C294.629 337.395 296.067 337.056 297.771 337.056C299.474 337.056 300.886 337.395 302.006 338.073C303.125 338.75 304.027 339.646 304.708 340.759C305.439 341.824 305.951 343.083 306.243 344.535C306.535 345.939 306.68 347.415 306.68 348.964ZM306.827 363.05V367.842H316.686V316H306.316V334.878H306.169C305 333.038 303.394 331.659 301.349 330.739C299.353 329.771 297.235 329.287 294.994 329.287C292.22 329.287 289.784 329.844 287.69 330.957C285.596 332.022 283.843 333.45 282.432 335.241C281.069 337.032 280.022 339.113 279.292 341.485C278.61 343.809 278.269 346.229 278.269 348.746C278.269 351.36 278.61 353.877 279.292 356.297C280.022 358.717 281.069 360.871 282.432 362.759C283.843 364.599 285.622 366.075 287.765 367.188C289.906 368.253 292.39 368.786 295.214 368.786C297.696 368.786 299.912 368.35 301.861 367.479C303.857 366.559 305.463 365.083 306.68 363.05H306.827Z" fill="white"/>
<path d="M341.397 358.984C339.79 358.984 338.45 358.645 337.38 357.967C336.309 357.289 335.433 356.418 334.75 355.353C334.117 354.288 333.654 353.102 333.362 351.796C333.119 350.44 332.997 349.085 332.997 347.729C332.997 346.326 333.144 344.995 333.437 343.736C333.778 342.429 334.288 341.292 334.97 340.324C335.699 339.307 336.576 338.508 337.599 337.927C338.67 337.347 339.937 337.056 341.397 337.056C343.101 337.056 344.513 337.371 345.633 338C346.754 338.629 347.654 339.476 348.336 340.541C349.017 341.606 349.505 342.841 349.797 344.244C350.089 345.6 350.234 347.052 350.234 348.601C350.234 349.956 350.04 351.263 349.65 352.522C349.309 353.732 348.774 354.821 348.044 355.789C347.313 356.757 346.387 357.532 345.268 358.112C344.148 358.693 342.858 358.984 341.397 358.984ZM360.095 365.446V330.304H350.234V335.314H350.089C348.823 333.135 347.24 331.586 345.34 330.667C343.491 329.747 341.325 329.287 338.841 329.287C336.211 329.287 333.874 329.795 331.829 330.812C329.833 331.828 328.152 333.208 326.79 334.951C325.427 336.645 324.38 338.629 323.649 340.904C322.968 343.131 322.627 345.454 322.627 347.875C322.627 350.44 322.919 352.884 323.503 355.208C324.137 357.483 325.109 359.492 326.425 361.234C327.739 362.929 329.419 364.284 331.464 365.3C333.509 366.268 335.944 366.753 338.768 366.753C341.056 366.753 343.223 366.293 345.268 365.373C347.362 364.405 348.968 362.929 350.089 360.944H350.234V365.881C350.283 368.543 349.627 370.746 348.262 372.489C346.948 374.231 344.831 375.102 341.909 375.102C340.058 375.102 338.427 374.715 337.015 373.941C335.603 373.215 334.652 371.883 334.166 369.947H323.868C324.013 372.077 324.598 373.892 325.621 375.393C326.692 376.942 328.007 378.2 329.564 379.168C331.172 380.136 332.925 380.838 334.823 381.274C336.772 381.758 338.67 382 340.521 382C344.854 382 348.311 381.419 350.891 380.257C353.472 379.096 355.444 377.668 356.809 375.974C358.172 374.328 359.048 372.537 359.438 370.601C359.875 368.664 360.095 366.946 360.095 365.446Z" fill="white"/>
<path d="M393.132 345.043H376.26C376.309 344.317 376.454 343.494 376.699 342.574C376.991 341.655 377.454 340.783 378.085 339.96C378.767 339.138 379.644 338.46 380.715 337.927C381.834 337.347 383.222 337.056 384.879 337.056C387.41 337.056 389.285 337.734 390.503 339.089C391.767 340.444 392.644 342.429 393.132 345.043ZM376.26 351.578H403.502C403.698 348.673 403.453 345.89 402.773 343.228C402.091 340.565 400.971 338.194 399.412 336.112C397.902 334.031 395.955 332.385 393.569 331.175C391.183 329.916 388.385 329.287 385.171 329.287C382.297 329.287 379.668 329.795 377.283 330.812C374.946 331.828 372.924 333.232 371.22 335.023C369.517 336.766 368.201 338.847 367.276 341.267C366.352 343.688 365.889 346.301 365.889 349.109C365.889 352.013 366.326 354.675 367.203 357.096C368.128 359.516 369.419 361.597 371.074 363.34C372.73 365.083 374.75 366.438 377.136 367.406C379.522 368.326 382.201 368.786 385.171 368.786C389.456 368.786 393.107 367.817 396.126 365.881C399.146 363.945 401.385 360.726 402.845 356.224H393.716C393.375 357.386 392.45 358.5 390.94 359.564C389.43 360.581 387.63 361.089 385.536 361.089C382.614 361.089 380.375 360.339 378.816 358.838C377.258 357.338 376.407 354.918 376.26 351.578Z" fill="white"/>
<path d="M125.411 348.964C125.411 350.513 125.265 352.013 124.973 353.465C124.681 354.918 124.194 356.224 123.513 357.386C122.831 358.5 121.906 359.395 120.737 360.073C119.617 360.75 118.205 361.089 116.501 361.089C114.894 361.089 113.506 360.75 112.338 360.073C111.218 359.347 110.268 358.427 109.489 357.314C108.759 356.152 108.223 354.845 107.883 353.393C107.542 351.941 107.371 350.488 107.371 349.036C107.371 347.487 107.517 346.011 107.809 344.607C108.15 343.155 108.662 341.873 109.343 340.759C110.074 339.646 111.023 338.75 112.192 338.073C113.36 337.395 114.797 337.056 116.501 337.056C118.205 337.056 119.617 337.395 120.737 338.073C121.857 338.75 122.758 339.646 123.439 340.759C124.17 341.824 124.681 343.083 124.973 344.535C125.265 345.939 125.411 347.415 125.411 348.964ZM125.557 363.05V367.842H135.417V316H125.046V334.878H124.9C123.732 333.038 122.125 331.659 120.08 330.739C118.083 329.771 115.965 329.287 113.725 329.287C110.95 329.287 108.516 329.844 106.422 330.957C104.328 332.022 102.575 333.45 101.163 335.241C99.7998 337.032 98.7529 339.113 98.0225 341.485C97.3408 343.809 97 346.229 97 348.746C97 351.36 97.3408 353.877 98.0225 356.297C98.7529 358.717 99.7998 360.871 101.163 362.759C102.575 364.599 104.352 366.075 106.495 367.188C108.637 368.253 111.121 368.786 113.945 368.786C116.428 368.786 118.643 368.35 120.591 367.479C122.587 366.559 124.194 365.083 125.411 363.05H125.557Z" fill="#ABDA02"/>
<path d="M167.943 345.043H151.071C151.12 344.317 151.266 343.494 151.51 342.574C151.802 341.655 152.264 340.783 152.897 339.96C153.579 339.138 154.455 338.46 155.527 337.927C156.647 337.347 158.034 337.056 159.69 337.056C162.222 337.056 164.096 337.734 165.314 339.089C166.58 340.444 167.456 342.429 167.943 345.043ZM151.071 351.578H178.315C178.509 348.673 178.266 345.89 177.583 343.228C176.903 340.565 175.781 338.194 174.225 336.112C172.715 334.031 170.767 332.385 168.381 331.175C165.995 329.916 163.196 329.287 159.982 329.287C157.109 329.287 154.48 329.795 152.094 330.812C149.757 331.828 147.736 333.232 146.032 335.023C144.328 336.766 143.013 338.847 142.088 341.267C141.163 343.688 140.7 346.301 140.7 349.109C140.7 352.013 141.138 354.675 142.015 357.096C142.94 359.516 144.23 361.597 145.886 363.34C147.541 365.083 149.562 366.438 151.948 367.406C154.334 368.326 157.012 368.786 159.982 368.786C164.267 368.786 167.919 367.817 170.938 365.881C173.956 363.945 176.197 360.726 177.658 356.224H168.527C168.186 357.386 167.261 358.5 165.752 359.564C164.243 360.581 162.441 361.089 160.347 361.089C157.426 361.089 155.186 360.339 153.628 358.838C152.07 357.338 151.217 354.918 151.071 351.578Z" fill="#ABDA02"/>
<path d="M360.436 274.997H328.796H311.613C301.114 274.997 296.72 266.355 295.836 262.033C295.067 258.327 293.975 254.745 292.59 251.317C290.251 243.919 294.23 239.88 296.511 238.785L316.064 227.48C318.759 231.978 320.931 236.868 322.733 241.923C323.767 244.719 327.625 249.898 334.78 248.245L356.191 242.547C358.893 252.977 360.436 263.793 360.436 274.997Z" fill="url(#paint1_linear_80_23)"/>
<path fill-rule="evenodd" clip-rule="evenodd" d="M323.397 185.759C307.963 170.307 288.671 158.717 266.678 152.923L258.575 183.441C274.78 187.69 289.443 196.575 301.018 208.164L323.397 185.759Z" fill="url(#paint2_linear_80_23)"/>
<path d="M152.082 227.097C143.979 241.39 139.349 257.615 139.349 274.999H124.965C121.886 274.999 117.194 273.927 112.649 269.082C109.012 265.207 108.774 259.051 109.11 256.458C110.967 244.189 114.594 232.484 119.54 221.54C120.908 218.345 125.698 212.881 133.909 216.59L152.082 227.097Z" fill="url(#paint3_linear_80_23)"/>
<path d="M360.443 274.999C360.443 263.796 358.899 252.979 356.198 242.549L376.134 237.244C379.688 236.308 387.285 236.64 389.236 245.448C389.972 249.254 390.573 253.129 391.03 257.045C391.392 259.296 391.06 265.001 386.837 269.816C382.615 274.631 376.574 274.999 374.961 274.999H360.443Z" fill="#ABDA02"/>
<path d="M301.022 208.166L338.27 170.872C340.872 168.426 347.554 165.147 353.479 171.606C357.768 176.539 361.77 181.761 365.441 187.314C366.984 190.425 368.408 197.607 361.764 201.449L316.069 227.867C311.825 220.528 306.809 213.961 301.022 208.166Z" fill="#ABDA02"/>
<path d="M297.548 165.675C279.028 154.858 257.42 148.677 234.27 148.677C226.331 148.677 218.586 149.455 211.036 150.872C204.349 152.135 200.554 146.824 199.492 144.011L196.451 132.561C195.741 129.078 196.256 121.691 203.997 119.997C213.778 118.051 224.024 117 234.27 117C258.93 117 282.44 122.764 303.554 133.046C306.585 134.472 311.765 139.286 308.246 147.127L297.548 165.675Z" fill="#ABDA02"/>
<path d="M233.884 180.354C242.373 180.354 250.862 181.514 258.579 183.445L252.952 204.638C252.224 207.407 248.953 212.772 241.68 212.093C239.284 211.794 236.814 211.645 234.27 211.645C203.587 211.645 178.207 233.475 172.293 262.183C171.816 264.189 170.04 268.819 166.755 271.284C162.65 274.368 159.278 275 156.639 275H139.352C139.352 222.462 181.795 180.354 233.884 180.354Z" fill="#ABDA02"/>
<defs>
<linearGradient id="paint0_linear_80_23" x1="500" y1="500" x2="0" y2="0" gradientUnits="userSpaceOnUse">
<stop stop-color="#5D2169"/>
<stop offset="1" stop-color="#12163B"/>
</linearGradient>
<linearGradient id="paint1_linear_80_23" x1="326.157" y1="227.48" x2="326.157" y2="274.997" gradientUnits="userSpaceOnUse">
<stop stop-color="#6410D6"/>
<stop offset="1" stop-color="#A310D6"/>
</linearGradient>
<linearGradient id="paint2_linear_80_23" x1="290.986" y1="152.923" x2="290.986" y2="208.164" gradientUnits="userSpaceOnUse">
<stop stop-color="#6410D6"/>
<stop offset="1" stop-color="#A310D6"/>
</linearGradient>
<linearGradient id="paint3_linear_80_23" x1="130.541" y1="215.347" x2="130.541" y2="274.999" gradientUnits="userSpaceOnUse">
<stop stop-color="#6410D6"/>
<stop offset="1" stop-color="#A310D6"/>
</linearGradient>
</defs>
</svg>
