<svg width="500" height="500" viewBox="0 0 500 500" fill="none" xmlns="http://www.w3.org/2000/svg">
<rect width="500" height="500" fill="#00BAFA"/>
<path d="M214.162 399.157L185.034 410.923C85.1689 290.769 72.2234 186.903 78.2338 149.989C88.7752 55.305 140.881 89.7733 165.616 118.843C176.481 129.225 202.372 164.939 219.016 224.739C235.661 284.54 222.715 365.935 214.162 399.157Z" fill="white"/>
<path d="M278.659 413L245.37 400.542C230.39 322.469 244.676 234.199 253.692 199.823C263.679 155.526 292.991 151.835 306.399 155.526C322.812 158.987 355.777 166.324 356.332 167.985C426.792 185.15 427.763 254.963 419.441 287.724C411.581 313.563 387.956 364.827 356.332 363.166C312.502 359.29 290.911 264.653 285.594 217.818L290.448 266.96C295.996 309.042 318.189 344.479 328.591 356.937L278.659 413Z" fill="white"/>
</svg>
