<svg width="500" height="500" viewBox="0 0 500 500" fill="none" xmlns="http://www.w3.org/2000/svg">
<rect width="500" height="500" fill="#2262C1"/>
<g clip-path="url(#clip0_71_2)">
<path d="M247.423 104H306.972C315.097 104 322.366 108.705 325.202 115.799L377.471 246.541C377.874 247.549 377.879 248.659 377.484 249.671L377.192 250.422L377.189 250.429L325.139 383.897C322.345 391.062 315.038 395.832 306.856 395.832H247.316C243.967 395.832 241.62 392.753 242.724 389.807L296.393 246.541L242.855 110.088C241.695 107.131 244.044 104 247.423 104Z" fill="#D631B9"/>
<path d="M91.9746 104H151.524C159.649 104 166.917 108.705 169.753 115.799L222.023 246.541C222.426 247.549 222.43 248.659 222.036 249.671L221.743 250.422L221.74 250.429L169.691 383.897C166.897 391.062 159.59 395.832 151.408 395.832H91.8672C88.5189 395.832 86.1722 392.753 87.2757 389.807L140.945 246.541L87.4071 110.088C86.247 107.131 88.5962 104 91.9746 104Z" fill="#D631B9"/>
<path d="M287.831 218.672H203.767V281.919H287.831L301.567 249.392L287.831 218.672Z" fill="#D631B9"/>
<path d="M281.801 104H341.351C349.475 104 356.744 108.705 359.58 115.799L411.849 246.541C412.253 247.549 412.257 248.659 411.863 249.671L411.57 250.422L411.567 250.429L359.518 383.897C356.723 391.062 349.416 395.832 341.234 395.832H281.694C278.345 395.832 275.998 392.753 277.102 389.807L330.772 246.541L277.233 110.088C276.074 107.131 278.422 104 281.801 104Z" fill="white"/>
<path d="M126.353 104H185.902C194.027 104 201.296 108.705 204.131 115.799L256.401 246.541C256.804 247.549 256.809 248.659 256.414 249.671L256.121 250.422L256.118 250.429L204.069 383.897C201.275 391.062 193.968 395.832 185.786 395.832H126.245C122.897 395.832 120.55 392.753 121.654 389.807L175.323 246.541L121.785 110.088C120.625 107.131 122.974 104 126.353 104Z" fill="white"/>
<path d="M322.21 218.672H238.145V281.919H322.21L335.945 249.392L322.21 218.672Z" fill="white"/>
</g>
<defs>
<clipPath id="clip0_71_2">
<rect width="326" height="292" fill="white" transform="translate(87 104)"/>
</clipPath>
</defs>
</svg>
