<svg width="500" height="500" viewBox="0 0 500 500" fill="none" xmlns="http://www.w3.org/2000/svg">
<rect width="500" height="500" fill="black"/>
<path d="M249.486 105C238.594 105.058 227.832 107.258 217.783 111.47C207.749 115.696 198.631 121.848 190.982 129.591C183.318 137.335 177.268 146.511 173.153 156.599C169.037 166.688 166.943 177.485 167.001 188.384V215.928H234.027V176.023C234.027 174.156 234.391 172.289 235.118 170.567C235.831 168.83 236.878 167.267 238.216 165.935C239.539 164.604 241.11 163.561 242.84 162.838C244.571 162.114 246.418 161.752 248.293 161.752H250.708C252.584 161.752 254.43 162.114 256.161 162.838C257.892 163.561 259.462 164.604 260.785 165.935C262.109 167.267 263.156 168.83 263.883 170.567C264.596 172.304 264.974 174.156 264.974 176.023V283C273.772 283 282.497 281.263 290.627 277.891C298.756 274.518 306.143 269.583 312.368 263.359C318.592 257.135 323.522 249.739 326.895 241.605C330.269 233.47 332 224.743 332 215.942V188.399C332.043 166.326 323.362 145.122 307.845 129.446C300.225 121.703 291.15 115.566 281.13 111.369C271.082 107.142 260.335 104.986 249.486 105Z" fill="white"/>
<path d="M250.722 337.525H248.307C246.431 337.525 244.584 337.147 242.853 336.437C241.122 335.711 239.552 334.667 238.228 333.332C236.905 331.997 235.857 330.431 235.13 328.69C234.418 326.949 234.039 325.092 234.039 323.221V216C225.24 216 216.514 217.741 208.383 221.121C200.253 224.501 192.864 229.448 186.64 235.686C180.415 241.924 175.484 249.337 172.11 257.49C168.735 265.643 167.005 274.39 167.005 283.211V310.426C166.888 321.364 168.939 332.215 173.041 342.341C177.142 352.481 183.193 361.693 190.872 369.469C198.537 377.245 207.671 383.41 217.735 387.617C227.8 391.824 238.592 394 249.5 394C260.408 394 271.2 391.838 281.265 387.617C291.329 383.41 300.463 377.23 308.128 369.469C315.793 361.693 321.858 352.481 325.959 342.341C330.061 332.2 332.112 321.349 331.995 310.426V283.211H264.961V323.206C264.961 325.078 264.597 326.949 263.87 328.675C263.157 330.416 262.095 331.983 260.772 333.318C259.448 334.652 257.878 335.697 256.147 336.422C254.445 337.162 252.598 337.525 250.722 337.525Z" fill="white"/>
</svg>
