<svg width="500" height="501" viewBox="0 0 500 501" fill="none" xmlns="http://www.w3.org/2000/svg">
<rect width="500" height="500" fill="#FF0420"/>
<path d="M250 501C388.071 501 500 389.071 500 251C500 112.929 388.071 1 250 1C111.929 1 0 112.929 0 251C0 389.071 111.929 501 250 501Z" fill="#FF0420"/>
<path d="M177.1 317.4C162.2 317.4 150 313.9 140.5 306.9C131.1 299.8 126.4 289.6 126.4 276.5C126.4 273.7 126.7 270.4 127.3 266.4C128.9 257.4 131.2 246.6 134.2 233.9C142.7 199.5 164.7 182.3 200.1 182.3C209.7 182.3 218.4 183.9 226 187.2C233.6 190.3 239.6 195.1 244 201.5C248.4 207.8 250.6 215.3 250.6 224C250.6 226.6 250.3 229.9 249.7 233.9C247.8 245 245.6 255.9 242.9 266.4C238.5 283.5 231 296.4 220.2 304.9C209.5 313.3 195.1 317.4 177.1 317.4ZM179.8 290.4C186.8 290.4 192.7 288.3 197.6 284.2C202.6 280.1 206.2 273.8 208.3 265.2C211.2 253.4 213.4 243.2 214.9 234.4C215.4 231.8 215.7 229.1 215.7 226.3C215.7 214.9 209.8 209.2 197.9 209.2C190.9 209.2 184.9 211.3 179.9 215.4C175 219.5 171.5 225.8 169.4 234.4C167.1 242.8 164.9 253 162.6 265.2C162.1 267.7 161.8 270.3 161.8 273.1C161.7 284.7 167.8 290.4 179.8 290.4Z" fill="white"/>
<path d="M259.3 315.6C257.9 315.6 256.9 315.2 256.1 314.3C255.5 313.3 255.3 312.2 255.5 310.9L281.4 188.9C281.6 187.5 282.3 186.4 283.5 185.5C284.6 184.6 285.8 184.2 287.1 184.2H337C350.9 184.2 362 187.1 370.4 192.8C378.9 198.6 383.2 206.9 383.2 217.8C383.2 220.9 382.8 224.2 382.1 227.6C379 242 372.7 252.6 363.1 259.5C353.7 266.4 340.8 269.8 324.4 269.8H299.1L290.5 310.9C290.2 312.3 289.6 313.4 288.4 314.3C287.3 315.2 286.1 315.6 284.8 315.6H259.3ZM325.7 243.9C331 243.9 335.5 242.5 339.4 239.6C343.4 236.7 346 232.6 347.3 227.2C347.7 225.1 347.9 223.2 347.9 221.6C347.9 218 346.8 215.2 344.7 213.3C342.6 211.3 338.9 210.3 333.8 210.3H311.3L304.2 243.9H325.7Z" fill="white"/>
</svg>
