<svg width="500" height="500" viewBox="0 0 500 500" fill="none" xmlns="http://www.w3.org/2000/svg">
<rect width="500" height="500" fill="#7F3CE0"/>
<g clip-path="url(#clip0_51_10)">
<path d="M394.929 250.406C394.929 271.153 394.929 291.888 394.929 312.623C394.929 325.74 389.302 335.737 378.093 342.166C340.772 363.533 303.353 384.728 265.835 405.749C255.027 411.778 243.666 411.166 232.799 405.043C213.051 393.904 193.319 382.738 173.603 371.544C156.767 362.022 139.931 352.488 123.096 342.943C111.204 336.208 104.976 326.211 104.988 312.329C105.059 271.047 105.059 229.765 104.988 188.483C104.988 174.895 110.875 164.827 122.554 158.175C159.263 137.302 195.996 116.473 232.752 95.6863C244.467 89.0807 256.369 89.5399 267.942 96.0749C304.016 116.457 339.972 137.039 376.057 157.397C388.843 164.604 395.177 175.06 394.976 189.907C394.729 210.101 394.929 230.259 394.929 250.406ZM371.206 249.287C370.182 249.694 369.18 250.154 368.204 250.665C358.291 256.811 347.624 259.39 335.886 259.343C279.127 259.107 222.368 259.614 165.621 258.978C151.128 258.813 140.744 264.488 132.184 274.885C130.004 277.765 128.729 281.229 128.523 284.835C128.029 293.619 128.523 302.438 128.323 311.246C128.217 316.686 130.265 320.442 135.116 323.173C171.048 343.426 206.937 363.776 242.783 384.225C247.492 386.886 251.86 387.169 256.593 384.484C292.643 363.988 328.716 343.536 364.813 323.126C369.581 320.43 371.701 316.721 371.653 311.21C371.5 292.229 371.595 273.237 371.583 254.256C371.571 252.772 371.359 251.289 371.206 249.287ZM128.393 246.932C142.404 235.876 157.403 235.864 172.59 235.911C225.982 236.088 279.386 235.581 332.707 236.253C346.988 236.429 357.526 231.331 366.85 221.546C370.005 218.249 371.83 214.893 371.559 210.148C371.218 203.083 371.383 196.018 371.5 189.024C371.664 186.775 371.156 184.528 370.041 182.568C368.926 180.608 367.254 179.023 365.237 178.015C328.846 157.409 292.572 136.615 256.004 116.327C254.119 115.453 252.069 114.993 249.991 114.979C247.914 114.965 245.857 115.397 243.96 116.245C207.023 136.709 170.291 157.511 133.762 178.651C131.184 180.146 128.582 184.161 128.511 187.058C128.17 206.474 128.393 225.75 128.393 246.944V246.932Z" fill="white"/>
<path d="M329.164 293.301C329.164 297.21 329.164 301.107 329.164 305.017C329.034 318.216 320.204 327.777 307.1 328.307C297.741 328.696 288.334 328.672 278.974 328.307C267.295 327.848 258.642 319.982 257.629 308.196C256.77 298.117 257.146 287.92 257.04 277.782C257.04 274.626 258.665 273.319 261.856 273.437C266.565 273.602 271.274 273.614 275.913 273.437C279.516 273.307 280.811 275.003 280.799 278.347C280.799 285.577 280.928 292.806 280.799 300.036C280.717 303.721 281.976 305.417 285.861 305.252C290.924 305.028 296.022 305.064 301.096 305.252C304.628 305.37 305.97 303.933 305.9 300.413C305.735 293.195 305.97 285.953 305.805 278.736C305.723 275.132 306.736 273.555 310.715 273.402C329.187 272.672 329.187 272.554 329.187 290.969L329.164 293.301Z" fill="white"/>
<path d="M206.345 328.931C199.952 328.413 193.394 328.578 187.201 327.2C177.265 324.987 170.966 316.426 170.825 306.288C170.707 297.293 170.942 288.297 170.73 279.313C170.636 275.144 171.908 273.119 176.37 273.425C180.269 273.708 184.185 273.708 188.084 273.425C192.558 273.084 194.442 274.544 194.206 279.313C193.865 286.377 194.206 293.372 194.077 300.401C194.006 303.933 195.325 305.358 198.88 305.241C203.955 305.064 209.052 305.029 214.115 305.241C218.047 305.405 219.26 303.698 219.178 300.013C219.024 292.948 219.178 285.942 219.178 278.912C219.107 274.991 220.555 273.166 224.687 273.402C228.982 273.631 233.285 273.631 237.579 273.402C241.229 273.213 243.136 274.461 243.054 278.288C242.854 288.25 243.289 298.246 242.383 308.137C241.276 320.383 232.269 328.013 219.907 328.366C215.422 328.495 210.924 328.366 206.427 328.366L206.345 328.931Z" fill="white"/>
<path d="M206.91 167.736C211.796 167.736 216.682 167.736 221.579 167.736C232.057 167.865 241.17 175.189 242.135 185.657C242.924 196.373 243.125 207.123 242.736 217.861C242.736 219.392 239.851 221.888 238.027 222.147C233.623 222.783 229.055 222.312 224.558 222.382C220.543 222.441 219.024 220.451 219.095 216.566C219.213 209.501 218.977 202.436 219.166 195.442C219.272 191.509 217.988 189.66 213.809 189.884C208.735 190.155 203.637 190.049 198.562 189.884C195.266 189.802 194.018 191.203 194.065 194.441C194.183 202.071 193.971 209.748 194.147 217.331C194.23 220.863 192.758 222.37 189.368 222.323H188.19C166.551 222.111 171.295 224.737 170.777 205.839C170.624 200.163 170.648 194.488 170.777 188.813C170.836 183.173 173.117 177.784 177.124 173.816C181.132 169.848 186.542 167.621 192.181 167.618C197.126 167.701 202.012 167.736 206.91 167.736Z" fill="white"/>
<path d="M329.14 203.154C329.14 207.864 329.011 212.574 329.199 217.283C329.34 220.816 327.88 222.405 324.49 222.405H310.362C306.83 222.405 305.652 220.616 305.758 217.201C305.923 209.771 305.699 202.33 305.841 194.9C305.911 191.45 304.746 189.848 301.131 189.978C296.045 190.155 290.948 190.19 285.826 189.978C281.941 189.813 280.634 191.438 280.717 195.171C280.87 202.412 280.634 209.653 280.787 216.883C280.87 220.91 279.162 222.547 275.207 222.5C253.379 222.229 257.182 225.184 256.899 205.509C256.775 199.066 257.034 192.622 257.676 186.21C258.235 181.107 260.677 176.395 264.524 172.996C268.371 169.597 273.347 167.755 278.48 167.83C288.251 167.759 298.035 167.736 307.819 167.83C313.345 167.873 318.64 170.056 322.591 173.92C326.542 177.784 328.843 183.029 329.011 188.553C329.293 193.369 329.14 198.232 329.14 203.154Z" fill="white"/>
</g>
<defs>
<clipPath id="clip0_51_10">
<rect width="290" height="319" fill="white" transform="translate(105 91)"/>
</clipPath>
</defs>
</svg>
