<svg width="500" height="500" viewBox="0 0 500 500" fill="none" xmlns="http://www.w3.org/2000/svg">
<rect width="500" height="500" fill="#FFEEDA"/>
<path d="M365.765 298.306V138.276C365.552 124.886 355.138 114.108 342.067 114.108H179.049C143.873 114.653 115.605 144.155 115.605 180.298C115.605 192.491 118.794 202.942 123.682 212.086C127.826 219.707 134.309 226.892 140.685 232.227C142.492 233.75 141.642 233.097 147.168 236.581C154.819 241.37 163.533 243.766 163.533 243.766L163.427 339.457C163.639 344.03 164.065 348.384 165.233 352.412C168.847 365.912 177.986 376.254 190.419 381.261C195.627 383.33 201.472 384.745 207.741 384.854L337.922 385.289C363.851 385.289 384.893 363.735 384.893 337.062C384.999 321.277 377.348 307.125 365.765 298.306Z" fill="#FFEEDA"/>
<path d="M368.951 338.26C368.42 355.352 354.711 369.068 337.921 369.068L248.336 368.742C255.455 360.251 259.812 349.255 259.812 337.28C259.812 318.447 248.867 305.492 248.867 305.492H338.027C355.136 305.492 369.057 319.752 369.057 337.28L368.951 338.26Z" fill="#EBC28E"/>
<path d="M149.187 218.728C138.879 208.712 131.652 195.757 131.652 180.407V178.774C132.502 152.538 153.544 131.419 179.155 130.656H342.173C346.424 130.874 349.825 133.922 349.825 138.386V279.691C353.543 280.345 355.35 280.89 358.964 282.196C361.833 283.285 365.765 285.57 365.765 285.57V138.386C365.552 124.996 355.138 114.218 342.067 114.218H179.049C143.873 114.762 115.605 144.265 115.605 180.407C115.605 201.418 124.957 219.381 140.26 232.009C141.323 232.881 142.279 233.969 145.042 233.969C149.824 233.969 153.225 230.049 153.012 225.804C152.906 222.211 151.418 220.905 149.187 218.728Z" fill="#101010"/>
<path d="M337.922 288.945H210.08C201.472 289.053 194.564 296.13 194.564 304.948V323.781C194.777 332.491 202.003 339.893 210.611 339.893H220.069V323.781H210.611V305.384C210.611 305.384 212.949 305.384 215.818 305.384C231.971 305.384 243.874 320.733 243.874 337.172C243.874 351.76 230.909 370.375 209.23 368.852C189.995 367.545 179.58 350.017 179.58 337.172V177.577C179.58 170.392 173.842 164.513 166.828 164.513H154.076V180.843H163.534V337.28C163.002 369.069 185.638 385.072 209.23 385.072L338.029 385.507C363.959 385.507 385 363.953 385 337.28C385 310.609 363.853 288.945 337.922 288.945ZM368.953 338.26C368.422 355.352 354.713 369.069 337.922 369.069L248.337 368.742C255.458 360.251 259.815 349.255 259.815 337.28C259.815 318.447 248.868 305.492 248.868 305.492H338.029C355.138 305.492 369.06 319.754 369.06 337.28L368.953 338.26Z" fill="#101010"/>
<path d="M303.488 183.784H207.102V167.454H303.488C307.845 167.454 311.459 171.047 311.459 175.619C311.459 180.082 307.952 183.784 303.488 183.784Z" fill="#101010"/>
<path d="M303.488 260.639H207.102V244.309H303.488C307.845 244.309 311.459 247.902 311.459 252.475C311.459 256.938 307.952 260.639 303.488 260.639Z" fill="#101010"/>
<path d="M320.492 222.211H207.102V205.882H320.385C324.743 205.882 328.356 209.474 328.356 214.047C328.462 218.51 324.849 222.211 320.492 222.211Z" fill="#101010"/>
</svg>
