<svg width="500" height="500" viewBox="0 0 500 500" fill="none" xmlns="http://www.w3.org/2000/svg">
<rect width="500" height="500" fill="#7F1FFF"/>
<path d="M215.253 250.364C215.253 268.605 211.795 284.123 204.88 296.919C198.019 309.715 188.654 319.489 176.783 326.241C164.968 332.938 151.682 336.287 136.925 336.287C122.06 336.287 108.72 332.911 96.9041 326.159C85.0883 319.407 75.75 309.633 68.8892 296.837C62.0284 284.041 58.598 268.55 58.598 250.364C58.598 232.123 62.0284 216.604 68.8892 203.808C75.75 191.012 85.0883 181.266 96.9041 174.568C108.72 167.816 122.06 164.44 136.925 164.44C151.682 164.44 164.968 167.816 176.783 174.568C188.654 181.266 198.019 191.012 204.88 203.808C211.795 216.604 215.253 232.123 215.253 250.364ZM179.397 250.364C179.397 238.548 177.627 228.583 174.088 220.47C170.603 212.357 165.675 206.204 159.305 202.011C152.934 197.819 145.474 195.722 136.925 195.722C128.377 195.722 120.917 197.819 114.546 202.011C108.175 206.204 103.22 212.357 99.6811 220.47C96.1963 228.583 94.4538 238.548 94.4538 250.364C94.4538 262.179 96.1963 272.144 99.6811 280.257C103.22 288.37 108.175 294.523 114.546 298.716C120.917 302.909 128.377 305.005 136.925 305.005C145.474 305.005 152.934 302.909 159.305 298.716C165.675 294.523 170.603 288.37 174.088 280.257C177.627 272.144 179.397 262.179 179.397 250.364ZM442.272 225.289H406.498C405.844 220.661 404.51 216.55 402.495 212.956C400.481 209.308 397.894 206.204 394.736 203.645C391.578 201.086 387.93 199.125 383.792 197.764C379.708 196.403 375.27 195.722 370.478 195.722C361.821 195.722 354.279 197.873 347.854 202.175C341.429 206.422 336.447 212.629 332.907 220.797C329.368 228.91 327.598 238.766 327.598 250.364C327.598 262.288 329.368 272.307 332.907 280.42C336.501 288.534 341.511 294.659 347.936 298.798C354.361 302.936 361.793 305.005 370.233 305.005C374.971 305.005 379.354 304.379 383.383 303.126C387.467 301.874 391.088 300.05 394.246 297.654C397.404 295.204 400.018 292.236 402.087 288.751C404.211 285.267 405.681 281.292 406.498 276.827L442.272 276.99C441.346 284.668 439.032 292.073 435.329 299.206C431.681 306.285 426.753 312.628 420.546 318.237C414.393 323.79 407.042 328.201 398.493 331.468C389.999 334.681 380.388 336.287 369.662 336.287C354.742 336.287 341.402 332.911 329.64 326.159C317.933 319.407 308.677 309.633 301.87 296.837C295.118 284.041 291.743 268.55 291.743 250.364C291.743 232.123 295.173 216.604 302.034 203.808C308.895 191.012 318.206 181.266 329.967 174.568C341.728 167.816 354.96 164.44 369.662 164.44C379.354 164.44 388.338 165.802 396.615 168.524C404.946 171.247 412.324 175.222 418.749 180.449C425.174 185.622 430.401 191.965 434.431 199.479C438.515 206.994 441.128 215.597 442.272 225.289Z" fill="white"/>
</svg>
