<svg width="500" height="500" viewBox="0 0 500 500" fill="none" xmlns="http://www.w3.org/2000/svg">
<rect x="0.384033" width="249.626" height="500" fill="#7F1FFF"/>
<path d="M117.416 250.091C117.416 257.705 115.973 264.182 113.087 269.523C110.223 274.864 106.314 278.943 101.359 281.761C96.4276 284.557 90.8821 285.955 84.7231 285.955C78.5185 285.955 72.9503 284.545 68.0185 281.727C63.0867 278.909 59.189 274.83 56.3253 269.489C53.4617 264.148 52.0299 257.682 52.0299 250.091C52.0299 242.477 53.4617 236 56.3253 230.659C59.189 225.318 63.0867 221.25 68.0185 218.455C72.9503 215.636 78.5185 214.227 84.7231 214.227C90.8821 214.227 96.4276 215.636 101.359 218.455C106.314 221.25 110.223 225.318 113.087 230.659C115.973 236 117.416 242.477 117.416 250.091ZM102.45 250.091C102.45 245.159 101.712 241 100.234 237.614C98.7799 234.227 96.7231 231.659 94.064 229.909C91.4049 228.159 88.2912 227.284 84.7231 227.284C81.1549 227.284 78.0412 228.159 75.3821 229.909C72.7231 231.659 70.6549 234.227 69.1776 237.614C67.7231 241 66.9958 245.159 66.9958 250.091C66.9958 255.023 67.7231 259.182 69.1776 262.568C70.6549 265.955 72.7231 268.523 75.3821 270.273C78.0412 272.023 81.1549 272.898 84.7231 272.898C88.2912 272.898 91.4049 272.023 94.064 270.273C96.7231 268.523 98.7799 265.955 100.234 262.568C101.712 259.182 102.45 255.023 102.45 250.091ZM212.172 239.625H197.24C196.967 237.693 196.411 235.977 195.57 234.477C194.729 232.955 193.649 231.659 192.331 230.591C191.013 229.523 189.49 228.705 187.763 228.136C186.058 227.568 184.206 227.284 182.206 227.284C178.592 227.284 175.445 228.182 172.763 229.977C170.081 231.75 168.001 234.341 166.524 237.75C165.047 241.136 164.308 245.25 164.308 250.091C164.308 255.068 165.047 259.25 166.524 262.636C168.024 266.023 170.115 268.58 172.797 270.307C175.479 272.034 178.581 272.898 182.104 272.898C184.081 272.898 185.911 272.636 187.592 272.114C189.297 271.591 190.808 270.83 192.126 269.83C193.445 268.807 194.536 267.568 195.399 266.114C196.286 264.659 196.899 263 197.24 261.136L212.172 261.205C211.786 264.409 210.82 267.5 209.274 270.477C207.751 273.432 205.695 276.08 203.104 278.42C200.536 280.739 197.467 282.58 193.899 283.943C190.354 285.284 186.342 285.955 181.865 285.955C175.638 285.955 170.07 284.545 165.161 281.727C160.274 278.909 156.411 274.83 153.57 269.489C150.751 264.148 149.342 257.682 149.342 250.091C149.342 242.477 150.774 236 153.638 230.659C156.501 225.318 160.388 221.25 165.297 218.455C170.206 215.636 175.729 214.227 181.865 214.227C185.911 214.227 189.661 214.795 193.115 215.932C196.592 217.068 199.672 218.727 202.354 220.909C205.036 223.068 207.217 225.716 208.899 228.852C210.604 231.989 211.695 235.58 212.172 239.625Z" fill="white"/>
<rect x="250" width="250" height="500" fill="#FFA101"/>
<path d="M297.159 287.884C307.7 287.884 316.243 270.782 316.243 249.689C316.243 228.596 307.698 211.494 297.159 211.494C286.646 211.494 278.123 228.509 278.08 249.531V249.851C278.123 270.869 286.646 287.884 297.159 287.884Z" fill="#CA024B"/>
<path d="M452.416 287.878C462.956 287.878 471.5 270.778 471.5 249.683C471.5 228.589 462.956 211.488 452.416 211.488C441.877 211.488 433.333 228.589 433.333 249.683C433.333 270.778 441.877 287.878 452.416 287.878Z" fill="#006401"/>
<path d="M353.466 311.817C359.152 311.817 364.427 308.308 368.8 302.341V310.924H380.766V257.472C380.766 257.358 380.773 257.246 380.773 257.132V242.207C380.773 225.275 387.653 211.505 396.113 211.505C404.591 211.505 411.453 225.275 411.453 242.207V310.924H423.435V242.207C423.435 212.034 411.207 187.555 396.113 187.555C390.425 187.555 385.143 191.067 380.768 197.038V188.436H368.802V257.346C368.745 274.21 361.892 287.835 353.467 287.835C344.992 287.835 338.127 274.1 338.127 257.132V188.447H326.145V257.132C326.143 287.342 338.372 311.817 353.466 311.817Z" fill="#2A1D05"/>
</svg>
