<svg width="500" height="500" viewBox="0 0 500 500" fill="none" xmlns="http://www.w3.org/2000/svg">
<rect width="500" height="500" fill="url(#paint0_linear_74_56)"/>
<path d="M249.652 406.043C208.138 406.016 168.329 389.523 138.961 360.181C109.593 330.84 93.0638 291.046 93 249.532C93.0638 208.015 109.592 168.22 138.96 138.875C168.327 109.53 208.136 93.0319 249.652 93C291.168 93.0319 330.976 109.53 360.344 138.875C389.711 168.22 406.24 208.015 406.303 249.532C406.24 291.046 389.711 330.84 360.343 360.181C330.974 389.523 291.166 406.016 249.652 406.043ZM249.652 105.05C211.33 105.077 174.584 120.304 147.475 147.39C120.366 174.476 105.109 211.21 105.05 249.532C105.087 287.858 120.339 324.602 147.453 351.69C174.567 378.777 211.326 393.993 249.652 393.993C287.979 393.993 324.737 378.777 351.851 351.69C378.965 324.602 394.216 287.858 394.253 249.532C394.195 211.21 378.938 174.476 351.829 147.39C324.72 120.304 287.974 105.077 249.652 105.05Z" fill="white"/>
<path d="M269.457 381.279C235.063 381.252 202.083 367.584 177.754 343.273C153.424 318.962 139.73 285.993 139.677 251.599C139.73 217.205 153.424 184.236 177.754 159.925C202.083 135.614 235.063 121.946 269.457 121.919C303.851 121.946 336.831 135.614 361.16 159.925C385.49 184.236 399.184 217.205 399.237 251.599C399.184 285.993 385.49 318.962 361.16 343.273C336.831 367.584 303.851 381.252 269.457 381.279ZM269.457 131.278C237.547 131.305 206.95 143.988 184.378 166.544C161.807 189.1 149.104 219.689 149.056 251.599C149.109 283.506 161.815 314.089 184.386 336.641C206.957 359.194 237.55 371.873 269.457 371.9C301.364 371.873 331.958 359.194 354.528 336.641C377.1 314.089 389.805 283.506 389.858 251.599C389.805 219.692 377.1 189.109 354.528 166.557C331.958 144.005 301.364 131.325 269.457 131.299V131.278Z" fill="white"/>
<path d="M289.256 356.536C261.983 356.515 235.833 345.677 216.541 326.4C197.249 307.123 186.39 280.98 186.348 253.708C186.39 226.436 197.249 200.294 216.541 181.016C235.833 161.739 261.983 150.902 289.256 150.88C316.53 150.896 342.683 161.732 361.977 181.01C381.27 200.289 392.126 226.434 392.164 253.708C392.121 280.98 381.263 307.123 361.971 326.4C342.679 345.677 316.529 356.515 289.256 356.536ZM289.256 157.568C263.755 157.584 239.302 167.715 221.263 185.739C203.225 203.764 193.072 228.208 193.035 253.708C193.078 279.205 203.232 303.644 221.271 321.664C239.309 339.684 263.759 349.812 289.256 349.828C314.753 349.812 339.202 339.684 357.241 321.664C375.28 303.644 385.434 279.205 385.477 253.708C385.44 228.208 375.287 203.764 357.248 185.739C339.209 167.715 314.756 157.584 289.256 157.568Z" fill="white"/>
<path d="M309.061 331.772C288.91 331.756 269.589 323.749 255.334 309.506C241.08 295.263 233.057 275.947 233.025 255.796C233.051 235.642 241.072 216.321 255.327 202.074C269.582 187.826 288.907 179.816 309.061 179.8C329.215 179.816 348.54 187.826 362.795 202.074C377.05 216.321 385.071 235.642 385.097 255.796C385.065 275.947 377.043 295.263 362.788 309.506C348.534 323.749 329.212 331.756 309.061 331.772ZM309.061 183.817C289.972 183.832 271.669 191.42 258.167 204.914C244.666 218.408 237.068 236.707 237.042 255.796C237.073 274.882 244.673 293.175 258.174 306.665C271.675 320.155 289.976 327.74 309.061 327.756C328.146 327.74 346.447 320.155 359.948 306.665C373.449 293.175 381.049 274.882 381.08 255.796C381.054 236.707 373.457 218.408 359.956 204.914C346.454 191.42 328.15 183.832 309.061 183.817Z" fill="white"/>
<defs>
<linearGradient id="paint0_linear_74_56" x1="500" y1="0" x2="5.96046e-05" y2="500" gradientUnits="userSpaceOnUse">
<stop stop-color="#222364"/>
<stop offset="1" stop-color="#13114E"/>
</linearGradient>
</defs>
</svg>
