<svg width="20" height="20" viewBox="0 0 20 20" fill="none" xmlns="http://www.w3.org/2000/svg">
<rect width="20" height="20" fill="black"/>
<path d="M13.6398 7.77315H12.4619C12.3258 7.77315 12.1953 7.71481 12.1036 7.61202L11.6258 7.0731C11.5536 6.99254 11.4535 6.94531 11.3452 6.94531C11.2369 6.94531 11.1369 6.99254 11.0646 7.0731L10.6535 7.53702C10.5201 7.68703 10.3257 7.77592 10.1257 7.77592H3.67803C3.49468 8.2954 3.37523 8.84822 3.328 9.42326H9.41452C9.52286 9.42326 9.62287 9.37881 9.69787 9.30103L10.2646 8.70932C10.334 8.63431 10.434 8.59264 10.534 8.59264H10.5563C10.6646 8.59264 10.7646 8.63987 10.8368 8.72043L11.3146 9.25936C11.4063 9.36214 11.5369 9.42048 11.673 9.42048H16.64C16.5928 8.84822 16.4733 8.29262 16.29 7.77037L13.6398 7.77315Z" fill="white"/>
<path d="M7.01158 12.8903C7.11992 12.8903 7.21993 12.8458 7.29494 12.768L7.86164 12.1763C7.93387 12.1013 8.0311 12.0597 8.13388 12.0597H8.1561C8.26445 12.0597 8.36723 12.1069 8.43668 12.1847L8.91449 12.7236C9.00616 12.8264 9.13673 12.8847 9.27285 12.8847H16.0066C16.2594 12.3625 16.4428 11.8041 16.5539 11.2179H10.0896C9.95345 11.2179 9.82288 11.1596 9.73121 11.0568L9.2534 10.5234C9.18117 10.4429 9.08117 10.3984 8.97283 10.3984C8.86449 10.3984 8.7617 10.4457 8.69225 10.5234L8.28111 10.9874C8.14777 11.1402 7.95331 11.2263 7.75052 11.2263H3.41968C3.5308 11.8124 3.71414 12.3708 3.96694 12.893L7.01158 12.8903Z" fill="white"/>
<path d="M11.7869 5.9704C11.8952 5.9704 11.9952 5.92596 12.0702 5.84817L12.6369 5.25647C12.7064 5.18146 12.8064 5.13979 12.9092 5.13979H12.9314C13.0398 5.13979 13.1398 5.18702 13.212 5.26758L13.6898 5.80928C13.7815 5.91207 13.912 5.9704 14.0482 5.9704H15.3288C14.1093 4.34807 12.1702 3.30078 9.98677 3.30078C7.80329 3.30078 5.86149 4.34807 4.64197 5.9704H11.7869Z" fill="white"/>
<path d="M9.21728 14.5433H7.46717C7.33105 14.5433 7.20048 14.485 7.10881 14.3822L6.631 13.8433C6.55877 13.7627 6.45877 13.7183 6.35043 13.7183C6.24208 13.7183 6.1393 13.7655 6.06985 13.8433L5.65871 14.3072C5.52537 14.46 5.33091 14.5461 5.12812 14.5461H5.10034C6.31987 15.8517 8.05609 16.6712 9.98678 16.6712C11.9175 16.6712 13.6509 15.8517 14.8732 14.5461L9.21728 14.5433Z" fill="white"/>
</svg>
