<svg width="24" height="24" viewBox="0 0 24 24" fill="none" xmlns="http://www.w3.org/2000/svg">
<rect width="24" height="24" fill="#213147"/>
<path d="M5.04004 8.66952V15.3304C5.04004 15.7586 5.26433 16.146 5.63816 16.3635L11.4086 19.6939C11.7757 19.9046 12.2311 19.9046 12.5981 19.6939L18.3686 16.3635C18.7356 16.1528 18.9667 15.7586 18.9667 15.3304V8.66952C18.9667 8.24132 18.7424 7.8539 18.3686 7.63641L12.5981 4.30597C12.2311 4.09527 11.7757 4.09527 11.4086 4.30597L5.63816 7.63641C5.27113 7.84711 5.04684 8.24132 5.04684 8.66952H5.04004Z" fill="#213147"/>
<path d="M13.2574 13.2915L12.435 15.548C12.4146 15.6092 12.4146 15.6771 12.435 15.7451L13.8487 19.6261L15.4867 18.6813L13.5225 13.2915C13.4749 13.1691 13.305 13.1691 13.2574 13.2915Z" fill="#12AAFF"/>
<path d="M14.9091 9.49898C14.8615 9.37664 14.6916 9.37664 14.644 9.49898L13.8216 11.7555C13.8012 11.8167 13.8012 11.8847 13.8216 11.9526L16.1393 18.3076L17.7773 17.3629L14.9091 9.50578V9.49898Z" fill="#12AAFF"/>
<path d="M12 4.55741C12.0408 4.55741 12.0815 4.571 12.1155 4.59139L18.355 8.1937C18.4297 8.23448 18.4705 8.31604 18.4705 8.3976V15.6022C18.4705 15.6838 18.4229 15.7653 18.355 15.8061L12.1155 19.4084C12.0815 19.4288 12.0408 19.4424 12 19.4424C11.9592 19.4424 11.9184 19.4288 11.8844 19.4084L5.64496 15.8061C5.5702 15.7653 5.52942 15.6838 5.52942 15.6022V8.39081C5.52942 8.30924 5.57699 8.22768 5.64496 8.1869L11.8844 4.5846C11.9184 4.56421 11.9592 4.55061 12 4.55061V4.55741ZM12 3.50391C11.7757 3.50391 11.5582 3.55828 11.3543 3.67383L5.11481 7.27613C4.7138 7.50722 4.46912 7.92862 4.46912 8.39081V15.5954C4.46912 16.0576 4.7138 16.479 5.11481 16.7101L11.3543 20.3124C11.5514 20.4279 11.7757 20.4823 12 20.4823C12.2243 20.4823 12.4418 20.4279 12.6457 20.3124L18.8851 16.7101C19.2861 16.479 19.5308 16.0576 19.5308 15.5954V8.39081C19.5308 7.92862 19.2861 7.50722 18.8851 7.27613L12.6389 3.67383C12.4418 3.55828 12.2175 3.50391 11.9932 3.50391H12Z" fill="#9DCCED"/>
<path d="M7.86755 18.3142L8.44528 16.7373L9.60074 17.6957L8.52005 18.688L7.86755 18.3142Z" fill="#213147"/>
<path d="M11.4698 7.88131H9.88617C9.77062 7.88131 9.66188 7.95607 9.6211 8.06482L6.22949 17.3628L7.86752 18.3076L11.6058 8.06482C11.6397 7.96967 11.5718 7.87451 11.4766 7.87451L11.4698 7.88131Z" fill="white"/>
<path d="M14.2429 7.88131H12.6593C12.5437 7.88131 12.435 7.95607 12.3942 8.06482L8.52002 18.6814L10.158 19.6262L14.3721 8.06482C14.406 7.96967 14.3381 7.87451 14.2429 7.87451V7.88131Z" fill="white"/>
</svg>
