<svg width="20" height="20" viewBox="0 0 20 20" fill="none" xmlns="http://www.w3.org/2000/svg">
<rect width="20" height="20" fill="#FFA101"/>
<path d="M3.77248 11.5156C4.61575 11.5156 5.29918 10.8315 5.29918 9.98777C5.29918 9.14404 4.61559 8.45996 3.77248 8.45996C2.93142 8.45996 2.24957 9.14056 2.24609 9.98145V9.99425C2.24957 10.835 2.93142 11.5156 3.77248 11.5156Z" fill="#CA024B"/>
<path d="M16.1937 11.5151C17.0369 11.5151 17.7204 10.8311 17.7204 9.98728C17.7204 9.14349 17.0369 8.45947 16.1937 8.45947C15.3505 8.45947 14.667 9.14349 14.667 9.98728C14.667 10.8311 15.3505 11.5151 16.1937 11.5151Z" fill="#006401"/>
<path d="M8.27745 12.4725C8.73233 12.4725 9.15435 12.3321 9.50421 12.0934V12.4367H10.4615V10.2986C10.4615 10.2941 10.462 10.2896 10.462 10.2851V9.68806C10.462 9.01078 11.0124 8.45995 11.6892 8.45995C12.3674 8.45995 12.9164 9.01078 12.9164 9.68806V12.4367H13.875V9.68806C13.875 8.48111 12.8967 7.50195 11.6892 7.50195C11.2342 7.50195 10.8117 7.64244 10.4617 7.88129V7.53719H9.50437V10.2936C9.49976 10.9682 8.95155 11.5132 8.27758 11.5132C7.59955 11.5132 7.05037 10.9638 7.05037 10.2851V7.53766H6.0918V10.2851C6.09164 11.4934 7.06995 12.4725 8.27745 12.4725Z" fill="#2A1D05"/>
</svg>
