<svg width="20" height="20" viewBox="0 0 20 20" fill="none" xmlns="http://www.w3.org/2000/svg">
<rect width="20" height="20" fill="url(#paint0_linear_80_23)"/>
<path d="M7.83959 13.4795V12.9945H8.269C8.30994 12.9945 8.34884 12.9983 8.38586 13.0061C8.42484 13.0119 8.45888 13.0235 8.48813 13.0409C8.51731 13.0584 8.54069 13.0826 8.55825 13.1135C8.57574 13.1445 8.58453 13.1842 8.58453 13.2326C8.58453 13.3197 8.55825 13.3827 8.50563 13.4214C8.45308 13.4601 8.38586 13.4795 8.30406 13.4795H7.83959ZM7.38086 12.6401V14.7138H8.39174C8.48523 14.7138 8.57574 14.7022 8.66343 14.679C8.75299 14.6557 8.83189 14.6199 8.90005 14.5715C8.97017 14.5231 9.02569 14.4611 9.06656 14.3856C9.1075 14.3082 9.12796 14.2172 9.12796 14.1126C9.12796 13.9829 9.09581 13.8725 9.0315 13.7815C8.96922 13.6886 8.87377 13.6237 8.74523 13.5869C8.83872 13.5424 8.90883 13.4853 8.95558 13.4156C9.00428 13.3459 9.0286 13.2588 9.0286 13.1542C9.0286 13.0574 9.01205 12.9761 8.97895 12.9102C8.94781 12.8444 8.90295 12.7921 8.84452 12.7534C8.78609 12.7127 8.71598 12.6837 8.63417 12.6663C8.55237 12.6488 8.46186 12.6401 8.36249 12.6401H7.38086ZM7.83959 14.3595V13.7902H8.33912C8.43849 13.7902 8.51833 13.8135 8.57872 13.8599C8.63904 13.9045 8.66923 13.98 8.66923 14.0865C8.66923 14.1407 8.65951 14.1852 8.64005 14.2201C8.62249 14.2549 8.59817 14.283 8.56703 14.3043C8.53582 14.3237 8.49982 14.3382 8.45888 14.3479C8.41802 14.3556 8.37519 14.3595 8.33034 14.3595H7.83959Z" fill="white"/>
<path d="M9.36475 13.212V14.7136H9.77957V14.0369C9.77957 13.9691 9.78639 13.9062 9.80003 13.8481C9.81368 13.79 9.83604 13.7397 9.86725 13.6971C9.90035 13.6525 9.94317 13.6177 9.99579 13.5925C10.0483 13.5673 10.1127 13.5548 10.1886 13.5548C10.2139 13.5548 10.2402 13.5567 10.2675 13.5606C10.2948 13.5625 10.3181 13.5654 10.3376 13.5693V13.1859C10.3045 13.1762 10.2743 13.1714 10.247 13.1714C10.1945 13.1714 10.1438 13.1791 10.0951 13.1946C10.0464 13.2101 10.0007 13.2324 9.95783 13.2614C9.91494 13.2885 9.87697 13.3224 9.84388 13.3631C9.81078 13.4018 9.78443 13.4444 9.76498 13.4909H9.75917V13.212H9.36475Z" fill="white"/>
<path d="M10.8978 12.9799V12.6401H10.4829V12.9799H10.8978ZM10.4829 13.2123V14.7138H10.8978V13.2123H10.4829Z" fill="white"/>
<path d="M12.2673 13.9587C12.2673 14.0206 12.2615 14.0807 12.2498 14.1388C12.2381 14.1968 12.2186 14.2491 12.1914 14.2956C12.1641 14.3401 12.1271 14.3759 12.0803 14.403C12.0356 14.4302 11.9791 14.4437 11.9109 14.4437C11.8466 14.4437 11.7911 14.4302 11.7443 14.403C11.6996 14.374 11.6616 14.3372 11.6305 14.2927C11.6012 14.2462 11.5798 14.1939 11.5661 14.1358C11.5525 14.0778 11.5458 14.0197 11.5458 13.9616C11.5458 13.8996 11.5516 13.8406 11.5632 13.7844C11.5769 13.7263 11.5974 13.675 11.6246 13.6305C11.6538 13.586 11.6918 13.5501 11.7385 13.523C11.7853 13.4959 11.8428 13.4824 11.9109 13.4824C11.9791 13.4824 12.0356 13.4959 12.0803 13.523C12.1251 13.5501 12.1612 13.586 12.1884 13.6305C12.2177 13.6731 12.2381 13.7234 12.2498 13.7815C12.2615 13.8377 12.2673 13.8967 12.2673 13.9587ZM12.2732 14.5221V14.7138H12.6675V12.6401H12.2527V13.3953H12.2468C12.2001 13.3217 12.1359 13.2665 12.0541 13.2297C11.9742 13.191 11.8895 13.1716 11.7999 13.1716C11.6889 13.1716 11.5915 13.1939 11.5077 13.2384C11.424 13.281 11.3538 13.3381 11.2974 13.4098C11.2429 13.4814 11.201 13.5647 11.1718 13.6595C11.1445 13.7525 11.1309 13.8493 11.1309 13.95C11.1309 14.0545 11.1445 14.1552 11.1718 14.252C11.201 14.3488 11.2429 14.435 11.2974 14.5105C11.3538 14.5841 11.425 14.6431 11.5107 14.6877C11.5963 14.7303 11.6957 14.7516 11.8087 14.7516C11.9079 14.7516 11.9966 14.7341 12.0745 14.6993C12.1544 14.6625 12.2186 14.6034 12.2673 14.5221H12.2732Z" fill="white"/>
<path d="M13.6561 14.3592C13.5918 14.3592 13.5382 14.3457 13.4954 14.3186C13.4526 14.2915 13.4175 14.2566 13.3902 14.214C13.3649 14.1714 13.3464 14.124 13.3347 14.0717C13.325 14.0175 13.3201 13.9633 13.3201 13.9091C13.3201 13.8529 13.326 13.7997 13.3377 13.7493C13.3513 13.6971 13.3717 13.6516 13.399 13.6128C13.4282 13.5722 13.4632 13.5402 13.5042 13.517C13.547 13.4938 13.5977 13.4821 13.6561 13.4821C13.7242 13.4821 13.7807 13.4947 13.8255 13.5199C13.8704 13.5451 13.9064 13.579 13.9336 13.6216C13.9609 13.6641 13.9804 13.7135 13.9921 13.7697C14.0038 13.8239 14.0096 13.882 14.0096 13.9439C14.0096 13.9981 14.0018 14.0504 13.9862 14.1008C13.9726 14.1492 13.9511 14.1927 13.922 14.2315C13.8927 14.2702 13.8557 14.3012 13.8109 14.3244C13.7661 14.3476 13.7145 14.3592 13.6561 14.3592ZM14.404 14.6177V13.212H14.0096V13.4124H14.0038C13.9531 13.3253 13.8898 13.2634 13.8138 13.2266C13.7398 13.1898 13.6532 13.1714 13.5538 13.1714C13.4486 13.1714 13.3552 13.1917 13.2733 13.2324C13.1935 13.273 13.1263 13.3282 13.0718 13.3979C13.0173 13.4657 12.9754 13.5451 12.9461 13.6361C12.9189 13.7251 12.9053 13.8181 12.9053 13.9149C12.9053 14.0175 12.917 14.1153 12.9403 14.2082C12.9657 14.2992 13.0046 14.3796 13.0572 14.4493C13.1097 14.517 13.177 14.5713 13.2588 14.6119C13.3406 14.6506 13.438 14.67 13.5509 14.67C13.6424 14.67 13.7291 14.6516 13.8109 14.6148C13.8947 14.5761 13.9589 14.517 14.0038 14.4377H14.0096V14.6352C14.0115 14.7416 13.9853 14.8297 13.9307 14.8994C13.8781 14.9691 13.7934 15.004 13.6766 15.004C13.6025 15.004 13.5373 14.9885 13.4808 14.9575C13.4243 14.9285 13.3863 14.8752 13.3668 14.7978H12.9549C12.9607 14.883 12.9841 14.9556 13.025 15.0156C13.0679 15.0776 13.1205 15.1279 13.1828 15.1666C13.2471 15.2054 13.3172 15.2334 13.3931 15.2509C13.4711 15.2702 13.547 15.2799 13.621 15.2799C13.7944 15.2799 13.9326 15.2567 14.0358 15.2102C14.1391 15.1637 14.218 15.1066 14.2725 15.0389C14.3271 14.973 14.3621 14.9014 14.3777 14.8239C14.3952 14.7465 14.404 14.6778 14.404 14.6177Z" fill="white"/>
<path d="M15.7255 13.8016H15.0506C15.0525 13.7726 15.0583 13.7397 15.0681 13.7029C15.0798 13.6661 15.0983 13.6312 15.1236 13.5983C15.1509 13.5654 15.1859 13.5383 15.2288 13.517C15.2735 13.4938 15.3291 13.4821 15.3953 13.4821C15.4966 13.4821 15.5716 13.5093 15.6203 13.5635C15.6709 13.6177 15.7059 13.6971 15.7255 13.8016ZM15.0506 14.063H16.1403C16.1481 13.9468 16.1383 13.8355 16.1111 13.729C16.0838 13.6225 16.039 13.5276 15.9767 13.4444C15.9163 13.3611 15.8384 13.2953 15.7429 13.2469C15.6475 13.1966 15.5356 13.1714 15.407 13.1714C15.2921 13.1714 15.1869 13.1917 15.0915 13.2324C14.998 13.273 14.9172 13.3292 14.849 13.4008C14.7808 13.4705 14.7282 13.5538 14.6912 13.6506C14.6543 13.7474 14.6357 13.852 14.6357 13.9643C14.6357 14.0804 14.6532 14.1869 14.6883 14.2837C14.7253 14.3805 14.7769 14.4638 14.8431 14.5335C14.9094 14.6032 14.9902 14.6574 15.0856 14.6961C15.1811 14.7329 15.2882 14.7513 15.407 14.7513C15.5784 14.7513 15.7244 14.7126 15.8452 14.6352C15.966 14.5577 16.0556 14.4289 16.114 14.2489H15.7488C15.7352 14.2953 15.6982 14.3399 15.6378 14.3825C15.5774 14.4231 15.5054 14.4435 15.4216 14.4435C15.3048 14.4435 15.2152 14.4135 15.1528 14.3534C15.0905 14.2934 15.0564 14.1966 15.0506 14.063Z" fill="white"/>
<path d="M5.01634 13.9587C5.01634 14.0206 5.01049 14.0807 4.99881 14.1388C4.98713 14.1968 4.96765 14.2491 4.94038 14.2956C4.91311 14.3401 4.87611 14.3759 4.82937 14.403C4.78457 14.4302 4.72809 14.4437 4.65992 14.4437C4.59564 14.4437 4.54014 14.4302 4.49339 14.403C4.4486 14.374 4.41062 14.3372 4.37945 14.2927C4.35024 14.2462 4.32882 14.1939 4.31519 14.1358C4.30155 14.0778 4.29473 14.0197 4.29473 13.9616C4.29473 13.8996 4.30057 13.8406 4.31226 13.7844C4.32589 13.7263 4.34635 13.675 4.37362 13.6305C4.40282 13.586 4.44081 13.5501 4.48755 13.523C4.5343 13.4959 4.59175 13.4824 4.65992 13.4824C4.72809 13.4824 4.78457 13.4959 4.82937 13.523C4.87416 13.5501 4.91019 13.586 4.93746 13.6305C4.96667 13.6731 4.98713 13.7234 4.99881 13.7815C5.01049 13.8377 5.01634 13.8967 5.01634 13.9587ZM5.02218 14.5221V14.7138H5.41658V12.6401H5.00173V13.3953H4.99589C4.94915 13.3217 4.88487 13.2665 4.80307 13.2297C4.72322 13.191 4.63849 13.1716 4.5489 13.1716C4.43788 13.1716 4.3405 13.1939 4.25676 13.2384C4.17301 13.281 4.10289 13.3381 4.04641 13.4098C3.99187 13.4814 3.95 13.5647 3.92078 13.6595C3.89351 13.7525 3.87988 13.8493 3.87988 13.95C3.87988 14.0545 3.89351 14.1552 3.92078 14.252C3.95 14.3488 3.99187 14.435 4.04641 14.5105C4.10289 14.5841 4.17398 14.6431 4.25967 14.6877C4.34537 14.7303 4.44471 14.7516 4.55767 14.7516C4.657 14.7516 4.74562 14.7341 4.82352 14.6993C4.90337 14.6625 4.96765 14.6034 5.01634 14.5221H5.02218Z" fill="#ABDA02"/>
<path d="M6.71765 13.8016H6.04278C6.04473 13.7726 6.05057 13.7397 6.06031 13.7029C6.07199 13.6661 6.0905 13.6312 6.11582 13.5983C6.14308 13.5654 6.17814 13.5383 6.22099 13.517C6.26579 13.4938 6.3213 13.4821 6.38752 13.4821C6.48879 13.4821 6.56378 13.5093 6.61247 13.5635C6.66311 13.6177 6.69816 13.6971 6.71765 13.8016ZM6.04278 14.063H7.13251C7.14028 13.9468 7.13055 13.8355 7.10326 13.729C7.07604 13.6225 7.03118 13.5276 6.9689 13.4444C6.90851 13.3611 6.83061 13.2953 6.73518 13.2469C6.63973 13.1966 6.52775 13.1714 6.3992 13.1714C6.28429 13.1714 6.17911 13.1917 6.08368 13.2324C5.99019 13.273 5.90937 13.3292 5.8412 13.4008C5.77303 13.4705 5.72045 13.5538 5.68343 13.6506C5.64643 13.7474 5.62793 13.852 5.62793 13.9643C5.62793 14.0804 5.64546 14.1869 5.68052 14.2837C5.71752 14.3805 5.76914 14.4638 5.83535 14.5335C5.90157 14.6032 5.9824 14.6574 6.07784 14.6961C6.17327 14.7329 6.2804 14.7513 6.3992 14.7513C6.5706 14.7513 6.71667 14.7126 6.83742 14.6352C6.95816 14.5577 7.0478 14.4289 7.10623 14.2489H6.74102C6.72738 14.2953 6.69038 14.3399 6.63 14.3825C6.56962 14.4231 6.49756 14.4435 6.41381 14.4435C6.29695 14.4435 6.20736 14.4135 6.14504 14.3534C6.08271 14.2934 6.04862 14.1966 6.04278 14.063Z" fill="#ABDA02"/>
<path d="M14.4176 10.9998H13.152H12.4647C12.0448 10.9998 11.869 10.6541 11.8336 10.4812C11.8029 10.333 11.7592 10.1897 11.7038 10.0526C11.6102 9.75666 11.7694 9.5951 11.8606 9.55131L12.6427 9.09912C12.7505 9.27904 12.8374 9.47464 12.9095 9.67681C12.9509 9.78865 13.1052 9.9958 13.3914 9.92972L14.2478 9.70177C14.3559 10.119 14.4176 10.5516 14.4176 10.9998Z" fill="url(#paint1_linear_80_23)"/>
<path fill-rule="evenodd" clip-rule="evenodd" d="M12.9357 7.43013C12.3183 6.81205 11.5466 6.34848 10.6669 6.1167L10.3428 7.33741C10.991 7.50739 11.5775 7.8628 12.0405 8.32636L12.9357 7.43013Z" fill="url(#paint2_linear_80_23)"/>
<path d="M6.08313 9.08377C5.75902 9.6555 5.57381 10.3045 5.57381 10.9999H4.99846C4.8753 10.9999 4.68762 10.957 4.50581 10.7632C4.36036 10.6082 4.35084 10.3619 4.36426 10.2582C4.43853 9.76745 4.58363 9.29928 4.78146 8.86151C4.8362 8.73371 5.02779 8.51516 5.35622 8.66352L6.08313 9.08377Z" fill="url(#paint3_linear_80_23)"/>
<path d="M14.4178 11.0001C14.4178 10.5519 14.3561 10.1193 14.248 9.70208L15.0455 9.48986C15.1877 9.45244 15.4915 9.46571 15.5696 9.81802C15.599 9.97029 15.6231 10.1253 15.6413 10.2819C15.6558 10.3719 15.6425 10.6002 15.4736 10.7928C15.3047 10.9854 15.0631 11.0001 14.9986 11.0001H14.4178Z" fill="#ABDA02"/>
<path d="M12.041 8.32663L13.531 6.83488C13.635 6.73701 13.9023 6.60587 14.1393 6.86422C14.3109 7.06154 14.471 7.27041 14.6178 7.49253C14.6795 7.61697 14.7365 7.90428 14.4707 8.05794L12.6429 9.11467C12.4732 8.82109 12.2725 8.55841 12.041 8.32663Z" fill="#ABDA02"/>
<path d="M11.9018 6.62716C11.161 6.19449 10.2966 5.94727 9.37062 5.94727C9.05307 5.94727 8.74328 5.97838 8.44126 6.03507C8.17381 6.08557 8.02198 5.87313 7.9795 5.76061L7.85788 5.3026C7.82947 5.16331 7.85008 4.86781 8.15973 4.80007C8.55098 4.7222 8.9608 4.68018 9.37062 4.68018C10.357 4.68018 11.2974 4.91072 12.142 5.32201C12.2632 5.37907 12.4704 5.5716 12.3297 5.88525L11.9018 6.62716Z" fill="#ABDA02"/>
<path d="M9.35551 7.21436C9.69507 7.21436 10.0346 7.26072 10.3433 7.33798L10.1182 8.1857C10.0891 8.29644 9.95825 8.51107 9.66733 8.48391C9.57151 8.47195 9.47272 8.46599 9.37095 8.46599C8.14362 8.46599 7.12844 9.33918 6.89187 10.4875C6.87278 10.5677 6.80175 10.7529 6.67036 10.8516C6.50615 10.9749 6.37125 11.0002 6.26568 11.0002H5.57422C5.57422 8.89866 7.27195 7.21436 9.35551 7.21436Z" fill="#ABDA02"/>
<defs>
<linearGradient id="paint0_linear_80_23" x1="20" y1="20" x2="0" y2="0" gradientUnits="userSpaceOnUse">
<stop stop-color="#5D2169"/>
<stop offset="1" stop-color="#12163B"/>
</linearGradient>
<linearGradient id="paint1_linear_80_23" x1="13.0464" y1="9.09912" x2="13.0464" y2="10.9998" gradientUnits="userSpaceOnUse">
<stop stop-color="#6410D6"/>
<stop offset="1" stop-color="#A310D6"/>
</linearGradient>
<linearGradient id="paint2_linear_80_23" x1="11.6392" y1="6.1167" x2="11.6392" y2="8.32636" gradientUnits="userSpaceOnUse">
<stop stop-color="#6410D6"/>
<stop offset="1" stop-color="#A310D6"/>
</linearGradient>
<linearGradient id="paint3_linear_80_23" x1="5.2215" y1="8.61377" x2="5.2215" y2="10.9999" gradientUnits="userSpaceOnUse">
<stop stop-color="#6410D6"/>
<stop offset="1" stop-color="#A310D6"/>
</linearGradient>
</defs>
</svg>
