<svg width="20" height="20" viewBox="0 0 20 20" fill="none" xmlns="http://www.w3.org/2000/svg">
<rect width="20" height="20" fill="#2262C1"/>
<g clip-path="url(#clip0_71_2)">
<path d="M9.89687 4.16016H12.2789C12.6038 4.16016 12.8946 4.34834 13.008 4.6321L15.0988 9.86179C15.1149 9.90213 15.1151 9.94651 15.0993 9.98699L15.0876 10.017L15.0875 10.0173L13.0055 15.356C12.8937 15.6426 12.6015 15.8334 12.2742 15.8334H9.89258C9.75865 15.8334 9.66476 15.7103 9.7089 15.5924L11.8557 9.86179L9.71417 4.40366C9.66777 4.28539 9.76173 4.16016 9.89687 4.16016Z" fill="#D631B9"/>
<path d="M3.67897 4.16016H6.06095C6.38593 4.16016 6.67668 4.34834 6.7901 4.6321L8.88089 9.86179C8.89701 9.90213 8.8972 9.94651 8.88143 9.98699L8.8697 10.017L8.86958 10.0173L6.78761 15.356C6.67585 15.6426 6.38356 15.8334 6.05631 15.8334H3.67467C3.54074 15.8334 3.44687 15.7103 3.49101 15.5924L5.6378 9.86179L3.49626 4.40366C3.44986 4.28539 3.54383 4.16016 3.67897 4.16016Z" fill="#D631B9"/>
<path d="M11.5132 8.74707H8.15063V11.2769H11.5132L12.0626 9.97586L11.5132 8.74707Z" fill="#D631B9"/>
<path d="M11.272 4.16016H13.654C13.979 4.16016 14.2697 4.34834 14.3831 4.6321L16.4739 9.86179C16.4901 9.90213 16.4902 9.94651 16.4745 9.98699L16.4627 10.017L16.4626 10.0173L14.3807 15.356C14.2689 15.6426 13.9766 15.8334 13.6493 15.8334H11.2677C11.1338 15.8334 11.0399 15.7103 11.084 15.5924L13.2308 9.86179L11.0893 4.40366C11.0429 4.28539 11.1369 4.16016 11.272 4.16016Z" fill="white"/>
<path d="M5.05409 4.16016H7.43607C7.76105 4.16016 8.0518 4.34834 8.16522 4.6321L10.256 9.86179C10.2721 9.90213 10.2723 9.94651 10.2566 9.98699L10.2448 10.017L10.2447 10.0173L8.16273 15.356C8.05097 15.6426 7.75868 15.8334 7.43143 15.8334H5.04979C4.91586 15.8334 4.82199 15.7103 4.86613 15.5924L7.01291 9.86179L4.87139 4.40366C4.82498 4.28539 4.91895 4.16016 5.05409 4.16016Z" fill="white"/>
<path d="M12.8883 8.74707H9.52576V11.2769H12.8883L13.4378 9.97586L12.8883 8.74707Z" fill="white"/>
</g>
<defs>
<clipPath id="clip0_71_2">
<rect width="13.04" height="11.68" fill="white" transform="translate(3.47998 4.16016)"/>
</clipPath>
</defs>
</svg>
