<svg width="20" height="20" viewBox="0 0 20 20" fill="none" xmlns="http://www.w3.org/2000/svg">
<rect width="20" height="20" fill="black"/>
<path d="M9.97937 4.2002C9.54368 4.20251 9.11322 4.29052 8.71127 4.45899C8.3099 4.62805 7.94517 4.8741 7.6392 5.18384C7.33264 5.49358 7.09066 5.86064 6.92604 6.26417C6.76142 6.66771 6.67765 7.09961 6.67998 7.53556V8.63731H9.36103V7.04113C9.36103 6.96645 9.37557 6.89176 9.40465 6.82287C9.43316 6.75339 9.47504 6.69086 9.52855 6.6376C9.58149 6.58434 9.64431 6.54265 9.71353 6.5137C9.78276 6.48476 9.85663 6.47028 9.93167 6.47028H10.0282C10.1033 6.47028 10.1771 6.48476 10.2464 6.5137C10.3156 6.54265 10.3784 6.58434 10.4313 6.6376C10.4843 6.69086 10.5262 6.75339 10.5553 6.82287C10.5838 6.89234 10.5989 6.96645 10.5989 7.04113V11.3202C10.9508 11.3202 11.2998 11.2507 11.625 11.1158C11.9502 10.9809 12.2457 10.7835 12.4946 10.5346C12.7436 10.2856 12.9408 9.98975 13.0757 9.66438C13.2107 9.33901 13.2799 8.9899 13.2799 8.63789V7.53614C13.2817 6.65323 12.9344 5.80506 12.3137 5.17805C12.0089 4.86831 11.6459 4.62284 11.2451 4.45494C10.8432 4.28588 10.4133 4.19962 9.97937 4.2002Z" fill="white"/>
<path d="M10.0288 13.5011H9.93223C9.85718 13.5011 9.78329 13.486 9.71406 13.4576C9.64483 13.4286 9.582 13.3868 9.52906 13.3334C9.47612 13.28 9.43423 13.2174 9.40514 13.1477C9.37663 13.0781 9.36151 13.0038 9.36151 12.929V8.64014C9.00954 8.64014 8.66047 8.70977 8.33526 8.84497C8.01005 8.98018 7.71451 9.17805 7.46551 9.42757C7.21651 9.67709 7.01929 9.97361 6.88432 10.2997C6.74935 10.6258 6.68012 10.9758 6.68012 11.3286V12.4172C6.67546 12.8547 6.75749 13.2887 6.92155 13.6938C7.08561 14.0994 7.32763 14.4679 7.63481 14.7789C7.9414 15.0899 8.30675 15.3365 8.70934 15.5048C9.11193 15.6731 9.5436 15.7601 9.97993 15.7601C10.4163 15.7601 10.8479 15.6737 11.2505 15.5048C11.6531 15.3365 12.0185 15.0893 12.3251 14.7789C12.6317 14.4679 12.8742 14.0994 13.0383 13.6938C13.2024 13.2882 13.2844 12.8541 13.2797 12.4172V11.3286H10.5984V12.9284C10.5984 13.0032 10.5838 13.0781 10.5547 13.1471C10.5262 13.2168 10.4837 13.2795 10.4308 13.3328C10.3779 13.3862 10.315 13.428 10.2458 13.457C10.1777 13.4866 10.1038 13.5011 10.0288 13.5011Z" fill="white"/>
</svg>
