<svg width="20" height="20" viewBox="0 0 20 20" fill="none" xmlns="http://www.w3.org/2000/svg">
<rect width="20" height="20" fill="white"/>
<path d="M14.6121 5.27979L10.6321 8.23579L11.3681 6.49179L14.6121 5.27979Z" fill="#E2761B" stroke="#E2761B" stroke-linecap="round" stroke-linejoin="round"/>
<path d="M5.42391 5.27979L9.37191 8.26379L8.67191 6.49179L5.42391 5.27979ZM13.1799 12.1318L12.1199 13.7558L14.3879 14.3798L15.0399 12.1678L13.1799 12.1318ZM5.00391 12.1678L5.65191 14.3798L7.91991 13.7558L6.85991 12.1318L5.00391 12.1678Z" fill="#E4761B" stroke="#E4761B" stroke-linecap="round" stroke-linejoin="round"/>
<path d="M7.79191 9.38809L7.15991 10.3441L9.41191 10.4441L9.33191 8.02409L7.79191 9.38809ZM12.2439 9.38809L10.6839 7.99609L10.6319 10.4441L12.8799 10.3441L12.2439 9.38809ZM7.91991 13.7561L9.27191 13.0961L8.10391 12.1841L7.91991 13.7561ZM10.7639 13.0961L12.1199 13.7561L11.9319 12.1841L10.7639 13.0961Z" fill="#E4761B" stroke="#E4761B" stroke-linecap="round" stroke-linejoin="round"/>
<path d="M12.1199 13.7562L10.7639 13.0962L10.8719 13.9802L10.8599 14.3522L12.1199 13.7562ZM7.91992 13.7562L9.17992 14.3522L9.17192 13.9802L9.27192 13.0962L7.91992 13.7562Z" fill="#D7C1B3" stroke="#D7C1B3" stroke-linecap="round" stroke-linejoin="round"/>
<path d="M9.20002 11.5998L8.07202 11.2678L8.86802 10.9038L9.20002 11.5998ZM10.836 11.5998L11.168 10.9038L11.968 11.2678L10.836 11.5998Z" fill="#233447" stroke="#233447" stroke-linecap="round" stroke-linejoin="round"/>
<path d="M7.92011 13.7562L8.11211 12.1322L6.86011 12.1682L7.92011 13.7562ZM11.9281 12.1322L12.1201 13.7562L13.1801 12.1682L11.9281 12.1322ZM12.8801 10.3442L10.6321 10.4442L10.8401 11.6002L11.1721 10.9042L11.9721 11.2682L12.8801 10.3442ZM8.07211 11.2682L8.87211 10.9042L9.20011 11.6002L9.41211 10.4442L7.16011 10.3442L8.07211 11.2682Z" fill="#CD6116" stroke="#CD6116" stroke-linecap="round" stroke-linejoin="round"/>
<path d="M7.15991 10.3442L8.10391 12.1842L8.07191 11.2682L7.15991 10.3442ZM11.9719 11.2682L11.9319 12.1842L12.8799 10.3442L11.9719 11.2682ZM9.41191 10.4442L9.19991 11.6002L9.46391 12.9642L9.52391 11.1682L9.41191 10.4442ZM10.6319 10.4442L10.5239 11.1642L10.5719 12.9642L10.8399 11.6002L10.6319 10.4442Z" fill="#E4751F" stroke="#E4751F" stroke-linecap="round" stroke-linejoin="round"/>
<path d="M10.84 11.6001L10.572 12.9641L10.764 13.0961L11.932 12.1841L11.972 11.2681L10.84 11.6001ZM8.07202 11.2681L8.10402 12.1841L9.27202 13.0961L9.46402 12.9641L9.20002 11.6001L8.07202 11.2681Z" fill="#F6851B" stroke="#F6851B" stroke-linecap="round" stroke-linejoin="round"/>
<path d="M10.8599 14.3519L10.8719 13.9799L10.7719 13.8919H9.26392L9.17192 13.9799L9.17992 14.3519L7.91992 13.7559L8.35992 14.1159L9.25192 14.7359H10.7839L11.6799 14.1159L12.1199 13.7559L10.8599 14.3519Z" fill="#C0AD9E" stroke="#C0AD9E" stroke-linecap="round" stroke-linejoin="round"/>
<path d="M10.7641 13.0959L10.5721 12.9639H9.46412L9.27212 13.0959L9.17212 13.9799L9.26412 13.8919H10.7721L10.8721 13.9799L10.7641 13.0959Z" fill="#161616" stroke="#161616" stroke-linecap="round" stroke-linejoin="round"/>
<path d="M14.7799 8.42778L15.1199 6.79579L14.6119 5.27979L10.7639 8.13579L12.2439 9.38778L14.3359 9.99979L14.7999 9.45979L14.5999 9.31578L14.9199 9.02379L14.6719 8.83179L14.9919 8.58778L14.7799 8.42778ZM4.91992 6.79579L5.25992 8.42778L5.04392 8.58778L5.36392 8.83179L5.11992 9.02379L5.43992 9.31578L5.23992 9.45979L5.69992 9.99979L7.79192 9.38778L9.27192 8.13579L5.42392 5.27979L4.91992 6.79579Z" fill="#763D16" stroke="#763D16" stroke-linecap="round" stroke-linejoin="round"/>
<path d="M14.3359 10.0002L12.2439 9.38819L12.8799 10.3442L11.9319 12.1842L13.1799 12.1682H15.0399L14.3359 10.0002ZM7.79191 9.38819L5.69991 10.0002L5.00391 12.1682H6.85991L8.10391 12.1842L7.15991 10.3442L7.79191 9.38819ZM10.6319 10.4442L10.7639 8.13619L11.3719 6.49219H8.67191L9.27191 8.13619L9.41191 10.4442L9.45991 11.1722L9.46391 12.9642H10.5719L10.5799 11.1722L10.6319 10.4442Z" fill="#F6851B" stroke="#F6851B" stroke-linecap="round" stroke-linejoin="round"/>
</svg>
