<svg width="24" height="24" viewBox="0 0 24 24" fill="none" xmlns="http://www.w3.org/2000/svg">
<rect width="24" height="23.9521" fill="#FF0420"/>
<path d="M12 23.9999C18.6274 23.9999 24 18.6381 24 12.0239C24 5.40971 18.6274 0.0478516 12 0.0478516C5.37258 0.0478516 0 5.40971 0 12.0239C0 18.6381 5.37258 23.9999 12 23.9999Z" fill="#FF0420"/>
<path d="M8.50074 15.2048C7.78554 15.2048 7.19994 15.0371 6.74394 14.7018C6.29274 14.3617 6.06714 13.873 6.06714 13.2455C6.06714 13.1114 6.08154 12.9533 6.11034 12.7617C6.18714 12.3305 6.29754 11.8131 6.44154 11.2048C6.84954 9.55686 7.90554 8.73291 9.60474 8.73291C10.0655 8.73291 10.4831 8.80956 10.8479 8.96764C11.2127 9.11614 11.5007 9.34608 11.7119 9.65267C11.9231 9.95447 12.0287 10.3137 12.0287 10.7305C12.0287 10.8551 12.0143 11.0131 11.9855 11.2048C11.8943 11.7365 11.7887 12.2587 11.6591 12.7617C11.4479 13.5808 11.0879 14.1988 10.5695 14.606C10.0559 15.0084 9.36474 15.2048 8.50074 15.2048ZM8.63034 13.9114C8.96634 13.9114 9.24954 13.8108 9.48474 13.6143C9.72474 13.4179 9.89754 13.1161 9.99834 12.7042C10.1375 12.1389 10.2431 11.6503 10.3151 11.2287C10.3391 11.1042 10.3535 10.9748 10.3535 10.8407C10.3535 10.2946 10.0703 10.0215 9.49914 10.0215C9.16314 10.0215 8.87514 10.1221 8.63514 10.3185C8.39994 10.5149 8.23194 10.8167 8.13114 11.2287C8.02074 11.6311 7.91514 12.1197 7.80474 12.7042C7.78074 12.8239 7.76634 12.9485 7.76634 13.0826C7.76154 13.6383 8.05434 13.9114 8.63034 13.9114Z" fill="white"/>
<path d="M12.4465 15.1183C12.3793 15.1183 12.3313 15.0992 12.2929 15.0561C12.2641 15.0082 12.2545 14.9555 12.2641 14.8932L13.5073 9.04888C13.5169 8.98181 13.5505 8.92912 13.6081 8.88601C13.6609 8.84289 13.7185 8.82373 13.7809 8.82373H16.1761C16.8433 8.82373 17.3761 8.96265 17.7793 9.23571C18.1873 9.51355 18.3937 9.91116 18.3937 10.4333C18.3937 10.5818 18.3745 10.7399 18.3409 10.9028C18.1921 11.5926 17.8897 12.1004 17.4289 12.4309C16.9777 12.7615 16.3585 12.9243 15.5713 12.9243H14.3569L13.9441 14.8932C13.9297 14.9603 13.9009 15.013 13.8433 15.0561C13.7905 15.0992 13.7329 15.1183 13.6705 15.1183H12.4465ZM15.6337 11.6836C15.8881 11.6836 16.1041 11.6165 16.2913 11.4776C16.4833 11.3387 16.6081 11.1423 16.6705 10.8836C16.6897 10.783 16.6993 10.692 16.6993 10.6153C16.6993 10.4429 16.6465 10.3088 16.5457 10.2177C16.4449 10.1219 16.2673 10.074 16.0225 10.074H14.9425L14.6017 11.6836H15.6337Z" fill="white"/>
</svg>
