<svg width="20" height="20" viewBox="0 0 20 20" fill="none" xmlns="http://www.w3.org/2000/svg">
<rect width="20" height="20" fill="#7F3CE0"/>
<g clip-path="url(#clip0_51_10)">
<path d="M15.7974 10.0165C15.7974 10.8464 15.7974 11.6758 15.7974 12.5052C15.7974 13.0299 15.5722 13.4298 15.1239 13.6869C13.6311 14.5416 12.1343 15.3894 10.6336 16.2302C10.2013 16.4714 9.74682 16.4469 9.31215 16.202C8.52224 15.7564 7.73295 15.3098 6.9443 14.862C6.27087 14.4812 5.59743 14.0998 4.924 13.718C4.44836 13.4486 4.19924 13.0487 4.19971 12.4934C4.20253 10.8421 4.20253 9.19086 4.19971 7.53958C4.19971 6.99606 4.43517 6.59337 4.90234 6.32726C6.3707 5.49235 7.84001 4.65918 9.31026 3.82773C9.77884 3.5635 10.255 3.58187 10.7179 3.84327C12.1608 4.65855 13.599 5.48183 15.0424 6.29617C15.5539 6.58442 15.8072 7.00265 15.7992 7.59657C15.7893 8.40431 15.7974 9.21064 15.7974 10.0165ZM14.8484 9.97176C14.8075 9.98804 14.7674 10.0064 14.7283 10.0269C14.3318 10.2727 13.9051 10.3759 13.4356 10.374C11.1653 10.3646 8.8949 10.3848 6.62501 10.3594C6.04529 10.3528 5.62993 10.5798 5.28756 10.9957C5.20034 11.1109 5.14936 11.2494 5.1411 11.3937C5.12132 11.745 5.1411 12.0978 5.13309 12.4501C5.12886 12.6677 5.2108 12.8179 5.40482 12.9272C6.84211 13.7373 8.27767 14.5513 9.7115 15.3693C9.89987 15.4757 10.0746 15.487 10.2639 15.3796C11.7059 14.5598 13.1488 13.7417 14.5927 12.9253C14.7834 12.8175 14.8682 12.6691 14.8663 12.4487C14.8602 11.6895 14.864 10.9297 14.8635 10.1705C14.863 10.1112 14.8545 10.0518 14.8484 9.97176ZM5.13592 9.87756C5.69633 9.4353 6.2963 9.43483 6.9038 9.43672C9.03948 9.44378 11.1756 9.42353 13.3085 9.45038C13.8797 9.45744 14.3012 9.2535 14.6742 8.86211C14.8004 8.73024 14.8734 8.59601 14.8626 8.4062C14.8489 8.1236 14.8555 7.84101 14.8602 7.56125C14.8667 7.47128 14.8464 7.3814 14.8018 7.303C14.7572 7.2246 14.6903 7.16121 14.6097 7.12087C13.154 6.29664 11.7031 5.46488 10.2404 4.65337C10.165 4.6184 10.0829 4.60001 9.99983 4.59944C9.91672 4.59887 9.83446 4.61613 9.75859 4.65007C8.28112 5.46865 6.81181 6.30073 5.35067 7.14631C5.24753 7.20612 5.14346 7.36673 5.14063 7.48259C5.12697 8.25925 5.13592 9.03026 5.13592 9.87803V9.87756Z" fill="white"/>
<path d="M13.1667 11.732C13.1667 11.8883 13.1667 12.0442 13.1667 12.2006C13.1615 12.7286 12.8083 13.111 12.2841 13.1322C11.9098 13.1478 11.5335 13.1468 11.1591 13.1322C10.6919 13.1139 10.3458 12.7992 10.3053 12.3278C10.2709 11.9246 10.286 11.5167 10.2817 11.1112C10.2817 10.985 10.3467 10.9327 10.4743 10.9374C10.6627 10.944 10.8511 10.9445 11.0366 10.9374C11.1807 10.9322 11.2325 11.0001 11.2321 11.1338C11.2321 11.423 11.2373 11.7122 11.2321 12.0014C11.2288 12.1488 11.2792 12.2166 11.4346 12.21C11.6371 12.2011 11.841 12.2025 12.044 12.21C12.1852 12.2147 12.2389 12.1573 12.2361 12.0165C12.2295 11.7277 12.2389 11.4381 12.2323 11.1494C12.229 11.0052 12.2695 10.9421 12.4287 10.936C13.1676 10.9068 13.1676 10.9021 13.1676 11.6387L13.1667 11.732Z" fill="white"/>
<path d="M8.25386 13.1572C7.99815 13.1365 7.73584 13.1431 7.48813 13.088C7.09066 12.9994 6.83871 12.657 6.83306 12.2515C6.82835 11.8916 6.83777 11.5318 6.82929 11.1724C6.82553 11.0057 6.87639 10.9247 7.05487 10.937C7.21086 10.9483 7.36746 10.9483 7.52345 10.937C7.7024 10.9233 7.77775 10.9817 7.76833 11.1724C7.75468 11.455 7.76833 11.7348 7.76315 12.016C7.76033 12.1573 7.81307 12.2143 7.95529 12.2096C8.15826 12.2025 8.36218 12.2011 8.56468 12.2096C8.72197 12.2162 8.77048 12.1479 8.76718 12.0004C8.76106 11.7179 8.76718 11.4376 8.76718 11.1564C8.76435 10.9996 8.82228 10.9266 8.98758 10.936C9.15934 10.9452 9.33148 10.9452 9.50325 10.936C9.64924 10.9285 9.72553 10.9784 9.72223 11.1315C9.71422 11.5299 9.73165 11.9298 9.69539 12.3254C9.65112 12.8153 9.29086 13.1205 8.79638 13.1346C8.61695 13.1398 8.43706 13.1346 8.25716 13.1346L8.25386 13.1572Z" fill="white"/>
<path d="M8.27678 6.70979C8.47222 6.70979 8.66765 6.70979 8.86356 6.70979C9.28269 6.71497 9.64719 7.00792 9.68581 7.42663C9.71737 7.85525 9.72538 8.28528 9.70983 8.71478C9.70983 8.77601 9.59445 8.87586 9.52145 8.88622C9.34532 8.91166 9.1626 8.89282 8.98271 8.89564C8.82212 8.898 8.76137 8.8184 8.76419 8.66297C8.7689 8.38038 8.75949 8.09779 8.76702 7.81802C8.77126 7.66071 8.71993 7.58677 8.55275 7.59572C8.34977 7.60655 8.14586 7.60231 7.94289 7.59572C7.81103 7.59242 7.76111 7.64847 7.76299 7.77799C7.7677 8.08319 7.75923 8.39027 7.76629 8.69359C7.76959 8.83488 7.71072 8.89517 7.57509 8.89329H7.528C6.66242 8.88481 6.85221 8.98984 6.83149 8.2339C6.82537 8.00689 6.82631 7.77987 6.83149 7.55286C6.83384 7.32727 6.92507 7.11172 7.08536 6.953C7.24566 6.79428 7.46208 6.70519 7.68764 6.70508C7.88544 6.70838 8.08087 6.70979 8.27678 6.70979Z" fill="white"/>
<path d="M13.1658 8.12639C13.1658 8.31478 13.1606 8.50318 13.1681 8.69157C13.1738 8.83287 13.1154 8.89645 12.9798 8.89645H12.4146C12.2734 8.89645 12.2263 8.82486 12.2305 8.68827C12.2371 8.39108 12.2282 8.09342 12.2338 7.79622C12.2366 7.65822 12.19 7.59417 12.0454 7.59935C11.842 7.60642 11.6381 7.60783 11.4332 7.59935C11.2778 7.59276 11.2255 7.65775 11.2288 7.80706C11.235 8.09671 11.2255 8.38637 11.2317 8.67556C11.235 8.83664 11.1667 8.9021 11.0084 8.90022C10.1353 8.88939 10.2874 9.0076 10.2761 8.22058C10.2712 7.96288 10.2816 7.70511 10.3072 7.44864C10.3296 7.2445 10.4272 7.05605 10.5811 6.92009C10.735 6.78413 10.9341 6.71044 11.1394 6.71342C11.5302 6.7106 11.9216 6.70965 12.3129 6.71342C12.534 6.71515 12.7458 6.80246 12.9038 6.95702C13.0619 7.11158 13.1539 7.32138 13.1606 7.54236C13.1719 7.735 13.1658 7.92951 13.1658 8.12639Z" fill="white"/>
</g>
<defs>
<clipPath id="clip0_51_10">
<rect width="11.6" height="12.76" fill="white" transform="translate(4.2002 3.64014)"/>
</clipPath>
</defs>
</svg>
