<svg width="20" height="20" viewBox="0 0 20 20" fill="none" xmlns="http://www.w3.org/2000/svg">
<rect width="20" height="20" fill="#FFEEDA"/>
<path d="M14.6306 11.9324V5.53117C14.6221 4.99556 14.2055 4.56445 13.6827 4.56445H7.16193C5.75492 4.58623 4.62421 5.76632 4.62421 7.21203C4.62421 7.69975 4.75173 8.11778 4.94727 8.48357C5.11305 8.78839 5.37235 9.07579 5.62739 9.28918C5.69966 9.35011 5.66565 9.32401 5.88669 9.46336C6.19275 9.65493 6.54131 9.75074 6.54131 9.75074L6.53706 13.5784C6.54557 13.7613 6.56257 13.9355 6.60933 14.0966C6.75385 14.6366 7.11942 15.0503 7.61677 15.2506C7.82505 15.3333 8.05885 15.3899 8.30965 15.3943L13.5169 15.4117C14.554 15.4117 15.3957 14.5495 15.3957 13.4826C15.3999 12.8512 15.0939 12.2851 14.6306 11.9324Z" fill="#FFEEDA"/>
<path d="M14.7581 13.5305C14.7368 14.2141 14.1885 14.7628 13.5168 14.7628L9.93343 14.7497C10.2182 14.4101 10.3925 13.9702 10.3925 13.4912C10.3925 12.7379 9.95467 12.2197 9.95467 12.2197H13.5211C14.2055 12.2197 14.7623 12.7901 14.7623 13.4912L14.7581 13.5305Z" fill="#EBC28E"/>
<path d="M5.96746 8.74924C5.55513 8.34861 5.26608 7.83042 5.26608 7.21642V7.15111C5.30008 6.10165 6.14174 5.25687 7.16618 5.22639H13.6869C13.8569 5.23509 13.993 5.35703 13.993 5.53556V11.1878C14.1417 11.2139 14.214 11.2357 14.3585 11.288C14.4733 11.3315 14.6306 11.4229 14.6306 11.4229V5.53556C14.6221 4.99995 14.2055 4.56885 13.6827 4.56885H7.16193C5.75492 4.59062 4.62421 5.77071 4.62421 7.21642C4.62421 8.05686 4.99828 8.77536 5.61039 9.28047C5.6529 9.31535 5.69115 9.35889 5.80168 9.35889C5.99296 9.35889 6.12899 9.2021 6.12049 9.03228C6.11623 8.88858 6.05673 8.83633 5.96746 8.74924Z" fill="#101010"/>
<path d="M13.5169 11.5578H8.40319C8.05888 11.5622 7.78257 11.8453 7.78257 12.198V12.9513C7.79108 13.2997 8.08013 13.5958 8.42445 13.5958H8.80276V12.9513H8.42445V12.2154C8.42445 12.2154 8.51796 12.2154 8.63274 12.2154C9.27885 12.2154 9.75496 12.8294 9.75496 13.4869C9.75496 14.0704 9.23634 14.815 8.36918 14.7541C7.59979 14.7018 7.18321 14.0007 7.18321 13.4869V7.10312C7.18321 6.81571 6.95367 6.58057 6.67312 6.58057H6.16302V7.23376H6.54135V13.4913C6.52009 14.7628 7.42551 15.4029 8.36918 15.4029L13.5212 15.4203C14.5583 15.4203 15.4 14.5582 15.4 13.4913C15.4 12.4244 14.5541 11.5578 13.5169 11.5578ZM14.7581 13.5305C14.7369 14.2141 14.1885 14.7628 13.5169 14.7628L9.93348 14.7497C10.2183 14.4101 10.3926 13.9703 10.3926 13.4913C10.3926 12.7379 9.95472 12.2197 9.95472 12.2197H13.5212C14.2055 12.2197 14.7624 12.7902 14.7624 13.4913L14.7581 13.5305Z" fill="#101010"/>
<path d="M12.1395 7.35143H8.28407V6.69824H12.1395C12.3138 6.69824 12.4584 6.84194 12.4584 7.02483C12.4584 7.20337 12.3181 7.35143 12.1395 7.35143Z" fill="#101010"/>
<path d="M12.1395 10.4257H8.28407V9.77246H12.1395C12.3138 9.77246 12.4584 9.9162 12.4584 10.0991C12.4584 10.2776 12.3181 10.4257 12.1395 10.4257Z" fill="#101010"/>
<path d="M12.8197 8.88854H8.28407V8.23535H12.8154C12.9897 8.23535 13.1342 8.37905 13.1342 8.56194C13.1385 8.74048 12.994 8.88854 12.8197 8.88854Z" fill="#101010"/>
</svg>
