<svg width="20" height="20" viewBox="0 0 20 20" fill="none" xmlns="http://www.w3.org/2000/svg">
<rect width="20" height="20" fill="#7F1FFF"/>
<path d="M8.85227 10.0909C8.85227 10.7254 8.73201 11.2652 8.49148 11.7102C8.25284 12.1553 7.92708 12.4953 7.5142 12.7301C7.10322 12.9631 6.6411 13.0795 6.12784 13.0795C5.6108 13.0795 5.14678 12.9621 4.7358 12.7273C4.32481 12.4924 4 12.1525 3.76136 11.7074C3.52273 11.2623 3.40341 10.7235 3.40341 10.0909C3.40341 9.45644 3.52273 8.91667 3.76136 8.47159C4 8.02652 4.32481 7.6875 4.7358 7.45455C5.14678 7.2197 5.6108 7.10227 6.12784 7.10227C6.6411 7.10227 7.10322 7.2197 7.5142 7.45455C7.92708 7.6875 8.25284 8.02652 8.49148 8.47159C8.73201 8.91667 8.85227 9.45644 8.85227 10.0909ZM7.60511 10.0909C7.60511 9.67992 7.54356 9.33333 7.42045 9.05114C7.29924 8.76894 7.12784 8.55492 6.90625 8.40909C6.68466 8.26326 6.42519 8.19034 6.12784 8.19034C5.83049 8.19034 5.57102 8.26326 5.34943 8.40909C5.12784 8.55492 4.95549 8.76894 4.83239 9.05114C4.71117 9.33333 4.65057 9.67992 4.65057 10.0909C4.65057 10.5019 4.71117 10.8485 4.83239 11.1307C4.95549 11.4129 5.12784 11.6269 5.34943 11.7727C5.57102 11.9186 5.83049 11.9915 6.12784 11.9915C6.42519 11.9915 6.68466 11.9186 6.90625 11.7727C7.12784 11.6269 7.29924 11.4129 7.42045 11.1307C7.54356 10.8485 7.60511 10.5019 7.60511 10.0909ZM15.857 9.21875H14.6127C14.59 9.05777 14.5436 8.91477 14.4735 8.78977C14.4034 8.66288 14.3135 8.55492 14.2036 8.46591C14.0938 8.37689 13.9669 8.30871 13.8229 8.26136C13.6809 8.21402 13.5265 8.19034 13.3599 8.19034C13.0587 8.19034 12.7964 8.26515 12.5729 8.41477C12.3494 8.5625 12.1761 8.77841 12.053 9.0625C11.9299 9.3447 11.8684 9.6875 11.8684 10.0909C11.8684 10.5057 11.9299 10.8542 12.053 11.1364C12.178 11.4186 12.3523 11.6316 12.5758 11.7756C12.7993 11.9195 13.0578 11.9915 13.3513 11.9915C13.5161 11.9915 13.6686 11.9697 13.8087 11.9261C13.9508 11.8826 14.0767 11.8191 14.1866 11.7358C14.2964 11.6506 14.3873 11.5473 14.4593 11.4261C14.5332 11.3049 14.5843 11.1667 14.6127 11.0114L15.857 11.017C15.8248 11.2841 15.7443 11.5417 15.6155 11.7898C15.4886 12.036 15.3172 12.2566 15.1013 12.4517C14.8873 12.6449 14.6316 12.7983 14.3343 12.9119C14.0388 13.0237 13.7046 13.0795 13.3314 13.0795C12.8125 13.0795 12.3485 12.9621 11.9394 12.7273C11.5322 12.4924 11.2102 12.1525 10.9735 11.7074C10.7386 11.2623 10.6212 10.7235 10.6212 10.0909C10.6212 9.45644 10.7405 8.91667 10.9792 8.47159C11.2178 8.02652 11.5417 7.6875 11.9508 7.45455C12.3599 7.2197 12.8201 7.10227 13.3314 7.10227C13.6686 7.10227 13.9811 7.14962 14.2689 7.24432C14.5587 7.33902 14.8154 7.47727 15.0388 7.65909C15.2623 7.83901 15.4441 8.05966 15.5843 8.32102C15.7263 8.58239 15.8172 8.88163 15.857 9.21875Z" fill="white"/>
</svg>
