<svg width="20" height="20" viewBox="0 0 20 20" fill="none" xmlns="http://www.w3.org/2000/svg">
<rect width="20" height="20" fill="#29296E"/>
<path fill-rule="evenodd" clip-rule="evenodd" d="M6.80665 8.22652L6.99668 7.6394C7.03531 7.51999 7.12956 7.42707 7.24941 7.39042L7.83941 7.20899C7.92107 7.18404 7.92173 7.06883 7.84073 7.04257L7.25339 6.85252C7.1342 6.8139 7.04127 6.71964 7.00441 6.59979L6.82319 6.0098C6.79826 5.92835 6.68304 5.92747 6.65677 6.00869L6.46673 6.59582C6.4281 6.715 6.33385 6.80793 6.214 6.8448L5.624 7.02601C5.54234 7.05117 5.54145 7.16617 5.62268 7.19243L6.21002 7.38247C6.32922 7.4211 6.42214 7.51557 6.459 7.63543L6.64022 8.2252C6.66516 8.30686 6.78037 8.30775 6.80665 8.22652Z" fill="#FAFAFA"/>
<path fill-rule="evenodd" clip-rule="evenodd" d="M16.1321 7.88442C15.8889 7.61244 15.5093 7.4593 15.1403 7.39651C14.7683 7.33619 14.3782 7.34179 14.011 7.40703C13.2679 7.53272 12.5929 7.84039 12.0041 8.21996C11.6984 8.40623 11.4376 8.62177 11.1675 8.84129C11.0373 8.95231 10.9187 9.07053 10.7951 9.18706L10.4574 9.52306C10.0905 9.90659 9.72881 10.2559 9.37888 10.5455C9.02754 10.8337 8.69907 11.0526 8.37535 11.2055C8.05185 11.3591 7.70569 11.4495 7.25451 11.464C6.80729 11.4797 6.27817 11.399 5.71219 11.2658C5.14318 11.1332 4.54565 10.9441 3.87793 10.7814C4.11091 11.4278 4.46176 11.999 4.9122 12.5211C5.36793 13.0342 5.93699 13.5018 6.66804 13.8093C7.38852 14.1237 8.29393 14.2365 9.14053 14.0663C9.98936 13.9029 10.7343 13.5102 11.3364 13.0558C11.94 12.5969 12.4284 12.0742 12.8401 11.5307C12.9538 11.3806 13.0139 11.2965 13.0961 11.1792L13.3235 10.8424C13.4815 10.6342 13.6253 10.397 13.7816 10.1906C14.0882 9.75842 14.3905 9.3267 14.7417 8.92897C14.9185 8.72723 15.1049 8.53427 15.3249 8.34883C15.4347 8.25832 15.5533 8.16974 15.6846 8.08995C15.8179 8.00388 15.9587 7.93651 16.1321 7.88442Z" fill="#EC796B"/>
<path fill-rule="evenodd" clip-rule="evenodd" d="M16.1321 7.88449C15.8708 7.22513 15.3851 6.67011 14.733 6.26056C14.085 5.8555 13.1849 5.64878 12.2929 5.82499C11.8523 5.91021 11.4255 6.07428 11.0508 6.29277C10.6779 6.51038 10.3437 6.77235 10.0544 7.05339C9.91001 7.19438 9.77892 7.34145 9.64868 7.48936L9.31113 7.91971L8.78978 8.61248C8.12514 9.5038 7.40941 10.5484 6.23486 10.8579C5.0818 11.1618 4.58169 10.8926 3.87793 10.7815C4.00661 11.1137 4.166 11.4363 4.38209 11.7202C4.59415 12.0097 4.84464 12.2817 5.15605 12.5149C5.31343 12.6268 5.47958 12.7374 5.66411 12.8311C5.84782 12.9216 6.04591 13.0013 6.25736 13.0613C6.67796 13.1766 7.15148 13.217 7.60996 13.1549C8.06865 13.0937 8.50708 12.9484 8.89031 12.7554C9.27637 12.5641 9.61268 12.3312 9.91297 12.0854C10.5099 11.5897 10.9742 11.042 11.3664 10.4883C11.5637 10.2115 11.7428 9.92943 11.9084 9.64731L12.1033 9.31144C12.1629 9.21325 12.2232 9.11447 12.2844 9.02248C12.5314 8.65285 12.773 8.35647 13.0664 8.13401C13.3557 7.9058 13.7587 7.73719 14.2971 7.69802C14.8333 7.65838 15.4523 7.7316 16.1321 7.88449Z" fill="#FAFAFA"/>
<path fill-rule="evenodd" clip-rule="evenodd" d="M13.2314 13.3629C13.2314 13.8472 13.6243 14.24 14.1085 14.24C14.5928 14.24 14.9851 13.8472 14.9851 13.3629C14.9851 12.8787 14.5928 12.4858 14.1085 12.4858C13.6243 12.4858 13.2314 12.8787 13.2314 13.3629Z" fill="#EC796B"/>
</svg>
