<svg width="20" height="20" viewBox="0 0 20 20" fill="none" xmlns="http://www.w3.org/2000/svg">
<rect width="20" height="20" fill="url(#paint0_linear_1_26)"/>
<path d="M15.0966 12.9628L13.2734 10.4761C13.0753 10.2059 12.782 10.044 12.4697 10.0083C12.3986 10.0001 12.3351 9.95865 12.2995 9.89618C12.2634 9.83372 12.2595 9.7579 12.2881 9.69161C12.4132 9.4023 12.4208 9.06645 12.2862 8.75928L11.0527 5.93105C10.8699 5.51108 10.4566 5.24023 10.0002 5.24023C9.54374 5.24023 9.13045 5.51171 8.94764 5.93105L7.71415 8.75928C7.5802 9.06645 7.58718 9.4023 7.71224 9.69161C7.74081 9.7579 7.73637 9.83372 7.70081 9.89618C7.66463 9.95865 7.60178 10.0001 7.53068 10.0083C7.21834 10.044 6.92505 10.2059 6.72699 10.4761L4.90374 12.9628C4.63331 13.3317 4.60601 13.8263 4.83391 14.2233C5.06245 14.6197 5.50303 14.8434 5.95629 14.7931L9.01301 14.4515C9.34502 14.4145 9.63135 14.2405 9.81798 13.9869C9.86052 13.9289 9.92846 13.8945 10.0002 13.8945C10.0719 13.8945 10.1392 13.9289 10.1824 13.9869C10.369 14.2405 10.6553 14.4145 10.9874 14.4515L14.0441 14.7931C14.4973 14.844 14.9379 14.6203 15.1665 14.2233C15.3943 13.8263 15.3671 13.3317 15.0966 12.9628ZM8.5115 9.11425L9.74686 6.28282C9.79134 6.1815 9.89099 6.11586 10.0008 6.11586C10.1106 6.11586 10.2103 6.1815 10.2548 6.28282L11.4901 9.11425C11.5289 9.20347 11.5206 9.30671 11.4673 9.38828C11.4139 9.46984 11.3238 9.51891 11.2261 9.51891H8.77495C8.67782 9.51891 8.58704 9.46984 8.53372 9.38828C8.48039 9.30671 8.47213 9.20347 8.51086 9.11425H8.5115ZM9.14568 13.4248C9.10188 13.5121 9.01683 13.5707 8.92032 13.5816L5.86044 13.9232C5.75124 13.9352 5.64459 13.8817 5.58936 13.7861C5.53413 13.6905 5.54112 13.5714 5.6065 13.4822L7.43165 10.9929C7.48942 10.9146 7.5821 10.87 7.67923 10.8757C7.77636 10.8808 7.86396 10.9349 7.91285 11.0197L7.91476 11.0229L9.13683 13.1476L9.13871 13.1508C9.1876 13.2355 9.19011 13.3388 9.14631 13.4254L9.14568 13.4248ZM10.2516 12.4638C10.1995 12.5536 10.1043 12.6097 10.0002 12.6097C9.89669 12.6097 9.80086 12.5543 9.74879 12.4644L8.80987 10.8323C8.75781 10.7425 8.75781 10.631 8.80987 10.5411C8.86192 10.4512 8.95716 10.3952 9.06126 10.3952H10.9385C11.0419 10.3952 11.1378 10.45 11.1898 10.5405C11.2419 10.631 11.2419 10.7419 11.1898 10.8317L10.2516 12.4638ZM14.4116 13.7861C14.3564 13.8817 14.2504 13.9359 14.1406 13.9238L11.0807 13.5822C10.9842 13.5714 10.8991 13.5127 10.8553 13.4254C10.8115 13.3381 10.814 13.2349 10.8629 13.1508L10.8648 13.1476L12.0869 11.0229L12.0888 11.0197C12.1376 10.9349 12.2253 10.8808 12.3224 10.8757C12.4195 10.8706 12.5122 10.9146 12.57 10.9929L14.3951 13.4822C14.4605 13.5714 14.4668 13.6905 14.4123 13.7861H14.4116Z" fill="#E81899"/>
<defs>
<linearGradient id="paint0_linear_1_26" x1="-1.25915e-07" y1="10.5" x2="20" y2="3.05474e-07" gradientUnits="userSpaceOnUse">
<stop offset="0.426441" stop-color="#121621"/>
<stop offset="1" stop-color="#191C26"/>
</linearGradient>
</defs>
</svg>
