<svg width="20" height="20" viewBox="0 0 20 20" fill="none" xmlns="http://www.w3.org/2000/svg">
<rect width="20" height="20" fill="url(#paint0_linear_74_56)"/>
<path d="M9.98605 16.2419C8.32548 16.2409 6.73315 15.5811 5.55842 14.4075C4.3837 13.2338 3.72252 11.642 3.71997 9.98148C3.72252 8.32083 4.38366 6.72902 5.55836 5.55522C6.73307 4.38142 8.3254 3.72149 9.98605 3.72021C11.6467 3.72149 13.239 4.38142 14.4137 5.55522C15.5884 6.72902 16.2496 8.32083 16.2521 9.98148C16.2496 11.642 15.5884 13.2338 14.4137 14.4075C13.2389 15.5811 11.6466 16.2409 9.98605 16.2419ZM9.98605 4.20222C8.45317 4.20328 6.98332 4.81236 5.89897 5.89581C4.81461 6.97926 4.20432 8.44862 4.20198 9.98148C4.20347 11.5145 4.81352 12.9843 5.89808 14.0678C6.98265 15.1513 8.453 15.7599 9.98605 15.7599C11.5191 15.7599 12.9895 15.1513 14.074 14.0678C15.1586 12.9843 15.7686 11.5145 15.7701 9.98148C15.7678 8.44862 15.1575 6.97926 14.0731 5.89581C12.9888 4.81236 11.5189 4.20328 9.98605 4.20222Z" fill="white"/>
<path d="M10.7784 15.2513C9.40258 15.2503 8.08341 14.7035 7.11022 13.7311C6.13703 12.7587 5.58929 11.4399 5.58716 10.0641C5.58929 8.68838 6.13703 7.36963 7.11022 6.39719C8.08341 5.42474 9.40258 4.87802 10.7784 4.87695C12.1541 4.87802 13.4733 5.42474 14.4465 6.39719C15.4197 7.36963 15.9674 8.68838 15.9695 10.0641C15.9674 11.4399 15.4197 12.7587 14.4465 13.7311C13.4733 14.7035 12.1541 15.2503 10.7784 15.2513ZM10.7784 5.25131C9.50195 5.25238 8.27807 5.75968 7.3752 6.66193C6.47234 7.56419 5.96424 8.78773 5.96232 10.0641C5.96443 11.3404 6.47267 12.5637 7.3755 13.4658C8.27835 14.3679 9.50209 14.8751 10.7784 14.8762C12.0546 14.8751 13.2784 14.3679 14.1812 13.4658C15.0841 12.5637 15.5923 11.3404 15.5944 10.0641C15.5923 8.78787 15.0841 7.56455 14.1812 6.66245C13.2784 5.76037 12.0546 5.25318 10.7784 5.25212V5.25131Z" fill="white"/>
<path d="M11.5702 14.2614C10.4793 14.2605 9.43327 13.827 8.66158 13.0559C7.8899 12.2848 7.45555 11.2392 7.45386 10.1483C7.45555 9.05737 7.8899 8.01169 8.66158 7.2406C9.43327 6.46952 10.4793 6.036 11.5702 6.03516C12.6612 6.03579 13.7073 6.46923 14.479 7.24036C15.2507 8.01149 15.685 9.05729 15.6865 10.1483C15.6848 11.2392 15.2505 12.2848 14.4788 13.0559C13.7071 13.827 12.6611 14.2605 11.5702 14.2614ZM11.5702 6.30267C10.5502 6.3033 9.57204 6.70855 8.85049 7.42952C8.12893 8.15048 7.72285 9.12825 7.72135 10.1483C7.72306 11.1681 8.12925 12.1457 8.85078 12.8665C9.57232 13.5873 10.5503 13.9924 11.5702 13.9931C12.5901 13.9924 13.568 13.5873 14.2896 12.8665C15.0111 12.1457 15.4173 11.1681 15.419 10.1483C15.4175 9.12825 15.0114 8.15048 14.2899 7.42952C13.5683 6.70855 12.5902 6.3033 11.5702 6.30267Z" fill="white"/>
<path d="M12.3625 13.2708C11.5565 13.2701 10.7836 12.9498 10.2134 12.3801C9.64324 11.8104 9.32233 11.0378 9.32104 10.2317C9.32211 9.42556 9.64294 8.65274 10.2131 8.08285C10.7833 7.51295 11.5563 7.19253 12.3625 7.19189C13.1687 7.19253 13.9417 7.51295 14.5119 8.08285C15.0821 8.65274 15.4029 9.42556 15.404 10.2317C15.4027 11.0378 15.0818 11.8104 14.5116 12.3801C13.9414 12.9498 13.1685 13.2701 12.3625 13.2708ZM12.3625 7.35256C11.5989 7.35319 10.8668 7.65669 10.3268 8.19644C9.78669 8.73621 9.48279 9.46818 9.48173 10.2317C9.48299 10.9952 9.78698 11.7269 10.327 12.2665C10.8671 12.8061 11.5991 13.1095 12.3625 13.1101C13.1259 13.1095 13.8579 12.8061 14.398 12.2665C14.938 11.7269 15.242 10.9952 15.2433 10.2317C15.2422 9.46818 14.9384 8.73621 14.3983 8.19644C13.8582 7.65669 13.126 7.35319 12.3625 7.35256Z" fill="white"/>
<defs>
<linearGradient id="paint0_linear_74_56" x1="20" y1="0" x2="2.38419e-06" y2="20" gradientUnits="userSpaceOnUse">
<stop stop-color="#222364"/>
<stop offset="1" stop-color="#13114E"/>
</linearGradient>
</defs>
</svg>
