<svg width="500" height="500" viewBox="0 0 500 500" fill="none" xmlns="http://www.w3.org/2000/svg">
<rect width="500" height="500" fill="#61DFFF"/>
<path d="M88.7976 315V185.545H120.087V289.589H173.942V315H88.7976ZM218.248 185.545L241.888 226.442H242.9L266.793 185.545H301.812L262.748 250.273L303.076 315H267.172L242.9 273.661H241.888L217.616 315H181.965L222.104 250.273L182.976 185.545H218.248ZM314.433 315V185.545H367.909C377.602 185.545 385.966 187.442 393.004 191.234C400.083 194.985 405.54 200.231 409.375 206.974C413.21 213.674 415.127 221.47 415.127 230.362C415.127 239.295 413.168 247.112 409.249 253.812C405.372 260.471 399.83 265.633 392.625 269.299C385.419 272.965 376.864 274.798 366.961 274.798H333.965V250.146H361.146C365.866 250.146 369.806 249.325 372.966 247.681C376.169 246.038 378.592 243.741 380.235 240.791C381.879 237.799 382.7 234.323 382.7 230.362C382.7 226.358 381.879 222.903 380.235 219.995C378.592 217.045 376.169 214.77 372.966 213.168C369.763 211.567 365.823 210.766 361.146 210.766H345.723V315H314.433Z" fill="black"/>
</svg>
