<svg width="500" height="500" viewBox="0 0 500 500" fill="none" xmlns="http://www.w3.org/2000/svg">
<rect width="500" height="500" fill="white"/>
<path d="M365.3 132L265.8 205.9L284.2 162.3L365.3 132Z" fill="#E2761B" stroke="#E2761B" stroke-linecap="round" stroke-linejoin="round"/>
<path d="M135.6 132L234.3 206.6L216.8 162.3L135.6 132ZM329.5 303.3L303 343.9L359.7 359.5L376 304.2L329.5 303.3ZM125.1 304.2L141.3 359.5L198 343.9L171.5 303.3L125.1 304.2Z" fill="#E4761B" stroke="#E4761B" stroke-linecap="round" stroke-linejoin="round"/>
<path d="M194.8 234.7L179 258.6L235.3 261.1L233.3 200.6L194.8 234.7ZM306.1 234.7L267.1 199.9L265.8 261.1L322 258.6L306.1 234.7ZM198 343.9L231.8 327.4L202.6 304.6L198 343.9ZM269.1 327.4L303 343.9L298.3 304.6L269.1 327.4Z" fill="#E4761B" stroke="#E4761B" stroke-linecap="round" stroke-linejoin="round"/>
<path d="M303 343.9L269.1 327.4L271.8 349.5L271.5 358.8L303 343.9ZM198 343.9L229.5 358.8L229.3 349.5L231.8 327.4L198 343.9Z" fill="#D7C1B3" stroke="#D7C1B3" stroke-linecap="round" stroke-linejoin="round"/>
<path d="M230 290L201.8 281.7L221.7 272.6L230 290ZM270.9 290L279.2 272.6L299.2 281.7L270.9 290Z" fill="#233447" stroke="#233447" stroke-linecap="round" stroke-linejoin="round"/>
<path d="M198 343.9L202.8 303.3L171.5 304.2L198 343.9ZM298.2 303.3L303 343.9L329.5 304.2L298.2 303.3ZM322 258.6L265.8 261.1L271 290L279.3 272.6L299.3 281.7L322 258.6ZM201.8 281.7L221.8 272.6L230 290L235.3 261.1L179 258.6L201.8 281.7Z" fill="#CD6116" stroke="#CD6116" stroke-linecap="round" stroke-linejoin="round"/>
<path d="M179 258.6L202.6 304.6L201.8 281.7L179 258.6ZM299.3 281.7L298.3 304.6L322 258.6L299.3 281.7ZM235.3 261.1L230 290L236.6 324.1L238.1 279.2L235.3 261.1ZM265.8 261.1L263.1 279.1L264.3 324.1L271 290L265.8 261.1Z" fill="#E4751F" stroke="#E4751F" stroke-linecap="round" stroke-linejoin="round"/>
<path d="M271 290L264.3 324.1L269.1 327.4L298.3 304.6L299.3 281.7L271 290ZM201.8 281.7L202.6 304.6L231.8 327.4L236.6 324.1L230 290L201.8 281.7Z" fill="#F6851B" stroke="#F6851B" stroke-linecap="round" stroke-linejoin="round"/>
<path d="M271.5 358.8L271.8 349.5L269.3 347.3H231.6L229.3 349.5L229.5 358.8L198 343.9L209 352.9L231.3 368.4H269.6L292 352.9L303 343.9L271.5 358.8Z" fill="#C0AD9E" stroke="#C0AD9E" stroke-linecap="round" stroke-linejoin="round"/>
<path d="M269.1 327.4L264.3 324.1H236.6L231.8 327.4L229.3 349.5L231.6 347.3H269.3L271.8 349.5L269.1 327.4Z" fill="#161616" stroke="#161616" stroke-linecap="round" stroke-linejoin="round"/>
<path d="M369.5 210.7L378 169.9L365.3 132L269.1 203.4L306.1 234.7L358.4 250L370 236.5L365 232.9L373 225.6L366.8 220.8L374.8 214.7L369.5 210.7ZM123 169.9L131.5 210.7L126.1 214.7L134.1 220.8L128 225.6L136 232.9L131 236.5L142.5 250L194.8 234.7L231.8 203.4L135.6 132L123 169.9Z" fill="#763D16" stroke="#763D16" stroke-linecap="round" stroke-linejoin="round"/>
<path d="M358.4 250L306.1 234.7L322 258.6L298.3 304.6L329.5 304.2H376L358.4 250ZM194.8 234.7L142.5 250L125.1 304.2H171.5L202.6 304.6L179 258.6L194.8 234.7ZM265.8 261.1L269.1 203.4L284.3 162.3H216.8L231.8 203.4L235.3 261.1L236.5 279.3L236.6 324.1H264.3L264.5 279.3L265.8 261.1Z" fill="#F6851B" stroke="#F6851B" stroke-linecap="round" stroke-linejoin="round"/>
</svg>
