<svg width="500" height="500" viewBox="0 0 500 500" fill="none" xmlns="http://www.w3.org/2000/svg">
<rect width="500" height="500" fill="#FFEEDA"/>
<path d="M389.158 308.132V115.68C388.901 99.5766 376.377 86.6155 360.658 86.6155H164.612C122.31 87.2701 88.3154 122.75 88.3154 166.215C88.3154 180.878 92.1494 193.446 98.0283 204.444C103.012 213.608 110.808 222.249 118.476 228.665C120.649 230.497 119.627 229.712 126.272 233.901C135.474 239.661 145.953 242.541 145.953 242.541L145.826 357.62C146.081 363.119 146.592 368.356 147.998 373.2C152.343 389.435 163.334 401.872 178.287 407.894C184.549 410.382 191.578 412.083 199.118 412.215L355.674 412.738C386.857 412.738 412.161 386.816 412.161 354.74C412.289 335.757 403.088 318.737 389.158 308.132Z" fill="#FFEEDA"/>
<path d="M392.99 356.181C392.351 376.735 375.865 393.23 355.672 393.23L247.937 392.838C256.499 382.627 261.739 369.403 261.739 355.002C261.739 332.354 248.576 316.774 248.576 316.774H355.8C376.376 316.774 393.117 333.923 393.117 355.002L392.99 356.181Z" fill="#EBC28E"/>
<path d="M128.7 212.431C116.304 200.386 107.613 184.807 107.613 166.347V164.383C108.636 132.831 133.94 107.433 164.74 106.516H360.786C365.898 106.778 369.988 110.444 369.988 115.812V285.746C374.46 286.532 376.632 287.187 380.978 288.758C384.429 290.067 389.158 292.816 389.158 292.816V115.812C388.901 99.7084 376.377 86.7473 360.658 86.7473H164.612C122.31 87.4019 88.3154 122.881 88.3154 166.347C88.3154 191.614 99.5619 213.216 117.965 228.403C119.243 229.451 120.393 230.76 123.716 230.76C129.467 230.76 133.557 226.046 133.301 220.941C133.173 216.62 131.384 215.049 128.7 212.431Z" fill="#101010"/>
<path d="M355.674 296.874H201.93C191.578 297.004 183.271 305.515 183.271 316.119V338.768C183.527 349.243 192.218 358.145 202.569 358.145H213.943V338.768H202.569V316.643C202.569 316.643 205.381 316.643 208.832 316.643C228.257 316.643 242.571 335.102 242.571 354.872C242.571 372.415 226.979 394.802 200.908 392.97C177.776 391.399 165.252 370.32 165.252 354.872V162.942C165.252 154.302 158.35 147.232 149.916 147.232H134.58V166.87H145.954V355.002C145.315 393.232 172.536 412.477 200.908 412.477L355.803 413C386.985 413 412.29 387.079 412.29 355.002C412.29 322.927 386.858 296.874 355.674 296.874ZM392.991 356.181C392.352 376.735 375.866 393.232 355.674 393.232L247.938 392.838C256.502 382.627 261.741 369.403 261.741 355.002C261.741 332.354 248.577 316.774 248.577 316.774H355.803C376.377 316.774 393.12 333.925 393.12 355.002L392.991 356.181Z" fill="#101010"/>
<path d="M314.264 170.407H198.349V150.769H314.264C319.503 150.769 323.849 155.09 323.849 160.588C323.849 165.956 319.632 170.407 314.264 170.407Z" fill="#101010"/>
<path d="M314.264 262.834H198.349V243.195H314.264C319.503 243.195 323.849 247.516 323.849 253.015C323.849 258.382 319.632 262.834 314.264 262.834Z" fill="#101010"/>
<path d="M334.713 216.62H198.349V196.982H334.584C339.825 196.982 344.169 201.302 344.169 206.801C344.297 212.169 339.952 216.62 334.713 216.62Z" fill="#101010"/>
</svg>
