<svg width="500" height="500" viewBox="0 0 500 500" fill="none" xmlns="http://www.w3.org/2000/svg">
<rect width="500" height="500" fill="#29296E"/>
<path fill-rule="evenodd" clip-rule="evenodd" d="M170.168 205.659L174.919 190.981C175.885 187.996 178.241 185.673 181.237 184.757L195.987 180.221C198.029 179.597 198.045 176.717 196.02 176.06L181.337 171.309C178.357 170.344 176.034 167.987 175.112 164.991L170.582 150.241C169.958 148.205 167.078 148.183 166.421 150.213L161.67 164.892C160.704 167.871 158.348 170.194 155.352 171.116L140.602 175.646C138.56 176.275 138.538 179.15 140.569 179.807L155.252 184.558C158.232 185.524 160.555 187.885 161.477 190.882L166.007 205.626C166.631 207.668 169.511 207.69 170.168 205.659Z" fill="#FAFAFA"/>
<path fill-rule="evenodd" clip-rule="evenodd" d="M403.303 197.116C397.223 190.316 387.733 186.488 378.507 184.918C369.208 183.41 359.456 183.55 350.276 185.181C331.699 188.323 314.823 196.015 300.103 205.504C292.46 210.161 285.941 215.549 279.188 221.037C275.934 223.813 272.967 226.768 269.878 229.682L261.436 238.082C252.262 247.67 243.221 256.403 234.473 263.642C225.689 270.848 217.477 276.32 209.385 280.142C201.297 283.984 192.643 286.243 181.363 286.604C170.183 286.999 156.955 284.981 142.806 281.65C128.58 278.334 113.642 273.608 96.9489 269.541C102.774 285.699 111.545 299.979 122.806 313.033C134.199 325.86 148.426 337.549 166.702 345.238C184.714 353.098 207.349 355.919 228.514 351.663C249.735 347.577 268.357 337.759 283.41 326.401C298.501 314.929 310.711 301.86 321.004 288.273C323.845 284.52 325.348 282.419 327.404 279.485L333.088 271.066C337.037 265.859 340.633 259.93 344.541 254.771C352.205 243.966 359.763 233.173 368.543 223.229C372.962 218.186 377.623 213.362 383.124 208.726C385.867 206.463 388.832 204.249 392.116 202.254C395.449 200.102 398.969 198.418 403.303 197.116Z" fill="#EC796B"/>
<path fill-rule="evenodd" clip-rule="evenodd" d="M403.303 197.115C396.772 180.632 384.627 166.756 368.326 156.517C352.125 146.391 329.623 141.223 307.324 145.628C296.309 147.759 285.637 151.86 276.271 157.322C266.948 162.763 258.594 169.312 251.361 176.338C247.751 179.863 244.474 183.539 241.218 187.237L232.779 197.996L219.745 215.315C203.129 237.598 185.236 263.713 155.872 271.45C127.046 279.047 114.543 272.319 96.9489 269.54C100.166 277.845 104.151 285.911 109.553 293.007C114.854 300.246 121.117 307.045 128.902 312.875C132.836 315.674 136.99 318.437 141.603 320.781C146.196 323.044 151.149 325.037 156.435 326.535C166.95 329.417 178.788 330.428 190.25 328.876C201.717 327.346 212.678 323.714 222.258 318.888C231.91 314.105 240.318 308.283 247.825 302.139C262.748 289.745 274.356 276.052 284.161 262.21C289.093 255.29 293.57 248.239 297.711 241.186L302.584 232.789C304.074 230.335 305.58 227.865 307.11 225.565C313.286 216.324 319.325 208.915 326.661 203.353C333.894 197.648 343.968 193.433 357.429 192.454C370.833 191.463 386.308 193.293 403.303 197.115Z" fill="#FAFAFA"/>
<path fill-rule="evenodd" clip-rule="evenodd" d="M330.783 334.074C330.783 346.182 340.604 356 352.709 356C364.818 356 374.624 346.182 374.624 334.074C374.624 321.968 364.818 312.147 352.709 312.147C340.604 312.147 330.783 321.968 330.783 334.074Z" fill="#EC796B"/>
</svg>
