<svg width="500" height="500" viewBox="0 0 500 500" fill="none" xmlns="http://www.w3.org/2000/svg">
<rect width="500" height="500" fill="#29296E"/>
<path fill-rule="evenodd" clip-rule="evenodd" d="M339.609 197.475L334.815 182.665C333.841 179.651 331.463 177.308 328.44 176.383L313.556 171.806C311.495 171.176 311.479 168.27 313.523 167.607L328.339 162.813C331.346 161.839 333.69 159.461 334.62 156.437L339.192 141.554C339.821 139.498 342.727 139.476 343.39 141.525L348.184 156.337C349.158 159.344 351.536 161.688 354.559 162.618L369.442 167.19C371.502 167.824 371.525 170.725 369.475 171.388L354.659 176.182C351.653 177.156 349.308 179.541 348.379 182.563L343.807 197.442C343.178 199.502 340.272 199.525 339.609 197.475Z" fill="#FAFAFA"/>
<path fill-rule="evenodd" clip-rule="evenodd" d="M78 244.919C82.5203 236.029 91.46 229.331 100.748 225.098C110.13 220.909 120.446 218.338 130.576 217.504C151.027 215.649 170.95 219.083 189.099 225.018C198.449 227.815 206.815 231.699 215.457 235.623C219.657 237.652 223.604 239.952 227.67 242.174L238.902 248.708C251.232 256.296 263.187 263.016 274.418 268.236C285.677 273.411 295.852 276.912 305.442 278.699C315.034 280.51 324.782 280.487 336.77 277.725C348.663 275.025 362.045 269.201 376.032 261.73C390.104 254.255 404.536 245.088 421 236.13C419.348 254.853 414.071 272.408 405.828 289.361C397.381 306.11 385.635 322.448 368.507 335.679C351.706 349.017 328.633 358.314 305.145 359.712C281.645 361.306 259.29 356.109 240.271 348.29C221.179 340.358 204.682 329.934 190.06 318.427C186.022 315.248 183.854 313.443 180.873 310.913L172.546 303.59C166.935 299.181 161.5 293.91 155.946 289.541C144.867 280.245 133.906 270.932 121.889 262.858C115.83 258.754 109.58 254.949 102.494 251.577C98.9729 249.948 95.2331 248.431 91.2185 247.236C87.1081 245.889 82.9303 245.088 78 244.919Z" fill="#FF4F0A"/>
<path fill-rule="evenodd" clip-rule="evenodd" d="M78 244.819C80.3079 225.711 89.2531 207.788 103.589 192.532C117.851 177.422 140.133 165.774 164.858 164.23C177.059 163.419 189.448 164.774 200.835 167.915C212.172 171.048 222.796 175.61 232.371 180.985C237.155 183.686 241.631 186.638 246.088 189.619L257.971 198.577L276.518 213.15C288.557 222.696 300.046 231.527 310.664 238.818C321.385 246.122 330.514 251.456 339.236 254.583C347.878 257.994 358.793 258.867 373.225 255.254C380.39 253.609 387.863 250.607 395.837 247.353C403.767 244.019 411.999 240.043 421 236.101C419.917 245.708 417.957 255.276 414.234 264.219C410.657 273.283 405.946 282.151 399.359 290.423C395.99 294.449 392.378 298.498 388.167 302.233C383.956 305.88 379.29 309.341 374.134 312.377C363.854 318.312 351.657 322.645 339.145 324.189C326.634 325.754 314.073 324.971 302.635 322.555C291.134 320.206 280.657 316.42 271.038 312.048C251.866 303.167 235.83 292.006 221.651 280.189C214.531 274.29 207.853 268.126 201.531 261.87L194.062 254.404C191.811 252.24 189.537 250.064 187.286 248.074C178.21 240.082 169.788 233.976 160.512 230.168C151.302 226.181 139.516 224.542 125.056 227.237C110.653 229.905 94.8508 236.107 78 244.819Z" fill="#FAFAFA"/>
<path fill-rule="evenodd" clip-rule="evenodd" d="M155 343.5C155 349.298 150.296 354 144.497 354C138.698 354 134 349.298 134 343.5C134 337.702 138.698 333 144.497 333C150.296 333 155 337.702 155 343.5Z" fill="#FAFAFA"/>
</svg>
