<svg width="500" height="500" viewBox="0 0 500 500" fill="none" xmlns="http://www.w3.org/2000/svg">
<rect width="500" height="500" fill="url(#paint0_linear_1_26)"/>
<path d="M377.41 324.063L331.83 261.896C326.878 255.141 319.546 251.095 311.737 250.203C309.96 249.995 308.373 248.96 307.484 247.399C306.579 245.837 306.484 243.942 307.198 242.284C310.325 235.052 310.515 226.655 307.151 218.976L276.314 148.27C271.744 137.771 261.411 131 250 131C238.589 131 228.257 137.787 223.687 148.27L192.849 218.976C189.501 226.655 189.675 235.052 192.802 242.284C193.516 243.942 193.405 245.837 192.516 247.399C191.611 248.96 190.04 249.995 188.263 250.203C180.454 251.095 173.122 255.141 168.17 261.896L122.589 324.063C115.828 333.288 115.146 345.651 120.843 355.577C126.557 365.486 137.571 371.079 148.903 369.821L225.321 361.281C233.621 360.356 240.779 356.007 245.445 349.666C246.509 348.216 248.207 347.356 250 347.356C251.793 347.356 253.476 348.216 254.555 349.666C259.221 356.007 266.379 360.356 274.68 361.281L351.097 369.821C362.429 371.095 373.443 365.502 379.157 355.577C384.854 345.651 384.172 333.288 377.41 324.063ZM212.783 227.85L243.667 157.065C244.779 154.532 247.27 152.891 250.015 152.891C252.762 152.891 255.253 154.532 256.365 157.065L287.249 227.85C288.217 230.081 288.011 232.662 286.678 234.701C285.344 236.74 283.091 237.967 280.647 237.967H219.369C216.941 237.967 214.672 236.74 213.339 234.701C212.005 232.662 211.799 230.081 212.767 227.85H212.783ZM228.638 335.614C227.542 337.797 225.416 339.263 223.004 339.533L146.506 348.073C143.777 348.375 141.11 347.038 139.73 344.648C138.349 342.257 138.523 339.278 140.158 337.048L185.787 274.818C187.231 272.858 189.548 271.743 191.976 271.886C194.405 272.014 196.595 273.368 197.817 275.486L197.864 275.566L228.416 328.684L228.463 328.763C229.686 330.883 229.748 333.464 228.653 335.63L228.638 335.614ZM256.285 311.589C254.983 313.835 252.603 315.237 250 315.237C247.413 315.237 245.017 313.852 243.715 311.604L220.242 270.803C218.941 268.557 218.941 265.768 220.242 263.522C221.544 261.275 223.925 259.874 226.527 259.874H273.458C276.044 259.874 278.44 261.244 279.742 263.506C281.044 265.768 281.044 268.541 279.742 270.787L256.285 311.589ZM360.286 344.648C358.906 347.038 356.255 348.392 353.51 348.089L277.012 339.549C274.6 339.278 272.474 337.813 271.379 335.63C270.283 333.448 270.346 330.866 271.568 328.763L271.617 328.684L302.168 275.566L302.215 275.486C303.437 273.368 305.627 272.014 308.055 271.886C310.484 271.759 312.801 272.858 314.245 274.818L359.874 337.048C361.508 339.278 361.667 342.257 360.302 344.648H360.286Z" fill="#E81899"/>
<defs>
<linearGradient id="paint0_linear_1_26" x1="-3.14787e-06" y1="262.5" x2="500" y2="7.63684e-06" gradientUnits="userSpaceOnUse">
<stop offset="0.426441" stop-color="#121621"/>
<stop offset="1" stop-color="#191C26"/>
</linearGradient>
</defs>
</svg>
