<svg width="500" height="500" viewBox="0 0 500 500" fill="none" xmlns="http://www.w3.org/2000/svg">
<rect width="500" height="500" fill="url(#paint0_linear_1_26)"/>
<path d="M401.36 337.607L347.212 263.995C341.329 255.996 332.618 251.204 323.342 250.148C321.231 249.903 319.346 248.677 318.289 246.828C317.215 244.979 317.101 242.734 317.95 240.772C321.665 232.208 321.89 222.266 317.894 213.173L281.26 129.45C275.831 117.018 263.556 109 250 109C236.444 109 224.17 117.036 218.74 129.45L182.107 213.173C178.128 222.266 178.336 232.208 182.05 240.772C182.898 242.734 182.767 244.979 181.711 246.828C180.636 248.677 178.769 249.903 176.658 250.148C167.382 251.204 158.671 255.996 152.789 263.995L98.6398 337.607C90.608 348.529 89.7972 363.168 96.5659 374.921C103.353 386.655 116.438 393.278 129.9 391.788L220.682 381.676C230.542 380.581 239.046 375.431 244.589 367.923C245.852 366.206 247.87 365.187 250 365.187C252.13 365.187 254.129 366.206 255.412 367.923C260.954 375.431 269.458 380.581 279.319 381.676L370.101 391.788C383.563 393.296 396.647 386.674 403.435 374.921C410.202 363.168 409.392 348.529 401.36 337.607ZM205.787 223.681L242.477 139.863C243.798 136.864 246.757 134.921 250.018 134.921C253.281 134.921 256.24 136.864 257.561 139.863L294.251 223.681C295.401 226.322 295.156 229.378 293.572 231.793C291.988 234.207 289.311 235.66 286.408 235.66H213.612C210.727 235.66 208.031 234.207 206.447 231.793C204.863 229.378 204.618 226.322 205.768 223.681H205.787ZM224.622 351.283C223.321 353.868 220.795 355.604 217.929 355.924L127.053 366.036C123.81 366.394 120.642 364.811 119.002 361.98C117.362 359.15 117.569 355.622 119.511 352.982L173.717 279.295C175.432 276.974 178.185 275.654 181.07 275.823C183.954 275.974 186.556 277.578 188.008 280.086L188.065 280.181L224.359 343.078L224.415 343.171C225.867 345.681 225.942 348.737 224.641 351.302L224.622 351.283ZM257.466 322.835C255.92 325.495 253.093 327.155 250 327.155C246.927 327.155 244.08 325.515 242.534 322.854L214.649 274.54C213.103 271.881 213.103 268.579 214.649 265.92C216.195 263.259 219.023 261.599 222.115 261.599H277.867C280.94 261.599 283.786 263.221 285.332 265.901C286.879 268.579 286.879 271.862 285.332 274.522L257.466 322.835ZM381.017 361.98C379.377 364.811 376.228 366.414 372.967 366.055L282.09 355.943C279.224 355.622 276.698 353.887 275.397 351.302C274.096 348.719 274.171 345.661 275.623 343.171L275.68 343.078L311.973 280.181L312.03 280.086C313.481 277.578 316.083 275.974 318.968 275.823C321.853 275.673 324.606 276.974 326.321 279.295L380.527 352.982C382.468 355.622 382.657 359.15 381.035 361.98H381.017Z" fill="#E81899"/>
<defs>
<linearGradient id="paint0_linear_1_26" x1="-3.14787e-06" y1="262.5" x2="500" y2="7.63684e-06" gradientUnits="userSpaceOnUse">
<stop offset="0.426441" stop-color="#121621"/>
<stop offset="1" stop-color="#191C26"/>
</linearGradient>
</defs>
</svg>
